<svg width="283" height="283" viewBox="0 0 283 283" fill="none" xmlns="http://www.w3.org/2000/svg">
<path d="M141.5 141.5C155.573 141.5 169.07 135.91 179.021 125.958C188.972 116.007 194.562 102.511 194.562 88.4375C194.562 74.3644 188.972 60.8678 179.021 50.9166C169.07 40.9655 155.573 35.375 141.5 35.375C127.427 35.375 113.93 40.9655 103.979 50.9166C94.028 60.8678 88.4375 74.3644 88.4375 88.4375C88.4375 102.511 94.028 116.007 103.979 125.958C113.93 135.91 127.427 141.5 141.5 141.5ZM141.5 159.188C122.736 159.188 104.74 151.734 91.4722 138.465C78.204 125.197 70.75 107.202 70.75 88.4375C70.75 69.6734 78.204 51.6779 91.4722 38.4097C104.74 25.1415 122.736 17.6875 141.5 17.6875C160.264 17.6875 178.26 25.1415 191.528 38.4097C204.796 51.6779 212.25 69.6734 212.25 88.4375C212.25 107.202 204.796 125.197 191.528 138.465C178.26 151.734 160.264 159.188 141.5 159.188ZM229.938 247.625V221.094C229.938 214.057 227.142 207.309 222.167 202.333C217.191 197.358 210.443 194.562 203.406 194.562H79.5938C72.5572 194.562 65.8089 197.358 60.8333 202.333C55.8577 207.309 53.0625 214.057 53.0625 221.094V247.625C53.0625 249.971 52.1307 252.22 50.4722 253.878C48.8137 255.537 46.5643 256.469 44.2188 256.469C41.8732 256.469 39.6238 255.537 37.9653 253.878C36.3068 252.22 35.375 249.971 35.375 247.625V221.094C35.375 209.366 40.0337 198.119 48.3264 189.826C56.619 181.534 67.8662 176.875 79.5938 176.875H203.406C215.134 176.875 226.381 181.534 234.674 189.826C242.966 198.119 247.625 209.366 247.625 221.094V247.625C247.625 249.971 246.693 252.22 245.035 253.878C243.376 255.537 241.127 256.469 238.781 256.469C236.436 256.469 234.186 255.537 232.528 253.878C230.869 252.22 229.938 249.971 229.938 247.625Z" fill="#1173FF"/>
</svg>
