<svg width="66" height="67" viewBox="0 0 66 67" fill="none" xmlns="http://www.w3.org/2000/svg">
<circle cx="33" cy="33.5665" r="33" fill="#FCF6BD"/>
<g clip-path="url(#clip0_10_4)">
<path d="M46.2203 32.1787H19.7797V49.43H46.2203V32.1787Z" fill="#656565"/>
<path d="M20.5 31.5382H19.017V54.8957H20.5V31.5382Z" fill="#353535"/>
<path d="M47.6187 31.5382H45.9237V54.8957H47.6187V31.5382Z" fill="#353535"/>
<path d="M50.5 31.0258H15.5V33.289H50.5V31.0258Z" fill="#353535"/>
<path d="M31.3475 30.3853H26.0085L27.1102 25.9444H30.2458L31.3475 30.3853Z" fill="#8E8E8E"/>
<path d="M36.7712 26.5849H20.5847C20.0339 26.5849 19.5678 26.1152 19.5678 25.5601V13.9027C19.5678 13.3476 20.0339 12.8778 20.5847 12.8778H36.7712C37.322 12.8778 37.7881 13.3476 37.7881 13.9027V25.6028C37.7881 26.1579 37.322 26.5849 36.7712 26.5849Z" fill="#AEAEAE"/>
<path d="M36.6441 13.4756H20.7119V25.133H36.6441V13.4756Z" fill="#3C3C3C"/>
<path d="M36.1356 14.1162H21.2203V24.5352H36.1356V14.1162Z" fill="#0CA3B3"/>
<path d="M32.2373 31.0685L25.1186 31.0258C24.6949 31.0258 24.3136 30.6415 24.3136 30.2145C24.3136 29.7875 24.6949 29.4032 25.1186 29.4032L32.2373 29.4459C32.661 29.4459 33.0424 29.8302 33.0424 30.2572C33.0424 30.7269 32.661 31.0685 32.2373 31.0685Z" fill="#AEAEAE"/>
<path d="M35.3729 18.0874L33.8898 16.5928V18.0874H35.3729Z" fill="#CDCDCD"/>
<path d="M33.8898 16.5928H28.8051V24.5352H35.3729V18.0874H33.8898V16.5928Z" fill="#DADADA"/>
<path d="M33.8898 18.0874H35.3729L33.8898 16.5928V18.0874Z" fill="#A8A8A8"/>
<path d="M34.6949 18.856H29.6102V19.4111H34.6949V18.856Z" fill="#797B7D"/>
<path d="M34.6949 19.8381H29.6102V20.3932H34.6949V19.8381Z" fill="#797B7D"/>
<path d="M34.6949 20.8629H29.6102V21.4181H34.6949V20.8629Z" fill="#797B7D"/>
<path d="M34.6949 21.8451H29.6102V22.4002H34.6949V21.8451Z" fill="#797B7D"/>
<path d="M34.6949 22.8699H29.6102V23.425H34.6949V22.8699Z" fill="#797B7D"/>
<path d="M31.9407 18.0874L30.4576 16.5928V18.0874H31.9407Z" fill="#CDCDCD"/>
<path d="M30.4576 16.5928H25.3729V24.5352H31.9407V18.0874H30.4576V16.5928Z" fill="#B8B8B8"/>
<path d="M30.4576 18.0874H31.9407L30.4576 16.5928V18.0874Z" fill="#A8A8A8"/>
<path d="M31.3051 18.856H26.2203V19.4111H31.3051V18.856Z" fill="#797B7D"/>
<path d="M31.3051 19.8381H26.2203V20.3932H31.3051V19.8381Z" fill="#797B7D"/>
<path d="M31.3051 20.8629H26.2203V21.4181H31.3051V20.8629Z" fill="#797B7D"/>
<path d="M31.3051 21.8451H26.2203V22.4002H31.3051V21.8451Z" fill="#6A6C6E"/>
<path d="M31.3051 22.8699H26.2203V23.425H31.3051V22.8699Z" fill="#6A6C6E"/>
<path d="M29.1864 17.3188L27.5339 15.6534V17.3188H29.1864Z" fill="#CDCDCD"/>
<path d="M27.5339 15.6534H21.8559V24.5352H29.1864V17.3188H27.5339V15.6534Z" fill="#E8E9E9"/>
<path d="M27.5339 17.3188H29.1864L27.5339 15.6534V17.3188Z" fill="#A8A8A8"/>
<path d="M28.4661 18.2155H22.7881V18.8133H28.4661V18.2155Z" fill="#B5B8B8"/>
<path d="M28.4661 19.3257H22.7881V19.9235H28.4661V19.3257Z" fill="#B5B8B8"/>
<path d="M28.4661 20.4359H22.7881V21.0338H28.4661V20.4359Z" fill="#B5B8B8"/>
<path d="M28.4661 21.5462H22.7881V22.144H28.4661V21.5462Z" fill="#B5B8B8"/>
<path d="M28.4661 22.6564H22.7881V23.2542H28.4661V22.6564Z" fill="#B5B8B8"/>
<path d="M40.2034 12.7071C39.822 12.5363 38.678 12.3228 38.1695 12.3228C37.661 12.3228 36.5169 12.5363 36.1356 12.7071C34.3559 13.4757 34.3136 15.0129 34.3136 17.3615H38.1695H42.0254C42.0254 15.0129 41.983 13.5184 40.2034 12.7071Z" fill="#646464"/>
<path d="M39.6949 21.8024H38.3813H38.0847H36.7288C36.7288 21.8024 37.1949 24.4071 35.0339 26.5422L38.0847 30.2572H38.3813L41.4322 26.5422C39.2712 24.4071 39.6949 21.8024 39.6949 21.8024Z" fill="#FCC083"/>
<path d="M36.7288 21.8024H38.0847H38.3813H39.7373C39.7373 21.8024 39.5254 23.0834 40.1186 24.5779C38.8898 24.1082 37.8729 23.0407 36.7712 22.1013C36.7712 21.8878 36.7288 21.8024 36.7288 21.8024Z" fill="#E8AA63"/>
<path d="M42.6186 17.2334C42.4915 16.9344 42.2797 17.1053 42.0678 17.2761C42.1525 14.9702 40.7966 13.7746 40.7966 13.7746H35.6695C35.6695 13.7746 34.3136 14.9275 34.3559 17.2334C34.1864 17.0626 33.9746 16.8917 33.8475 17.1907C33.6356 17.7458 34.1441 18.4717 34.0593 19.1976C33.9746 19.71 34.4407 19.6673 34.6949 19.4965C34.6949 19.5392 34.6949 19.5819 34.7373 19.5819L34.7797 19.5392C35.0339 18.856 35.6271 18.3009 36.5593 18.3009C36.5593 18.3009 36.5593 18.3009 36.6017 18.3009C37.2373 18.1301 37.9152 18.0447 38.5085 18.1301C39.1441 18.2155 39.7797 18.3009 40.4152 18.5144C40.9661 18.7279 41.4746 19.0268 41.7712 19.5819C41.7712 19.5392 41.7712 19.4965 41.8136 19.4965C42.1102 19.6246 42.5339 19.71 42.4915 19.1976C42.322 18.5144 42.8729 17.7458 42.6186 17.2334Z" fill="#FCC083"/>
<path d="M45.5 31.5809C45.5 29.1043 45.2034 26.0298 44.9915 25.6882C44.3983 24.6207 39.9915 23.5531 39.9915 23.5531H39.9491H36.5169H36.4746C36.4746 23.5531 32.0678 24.6207 31.4746 25.6882C31.2627 26.0725 31.0085 28.3784 31.0085 31.5809H45.5Z" fill="#FB9D0D"/>
<path d="M40.9661 12.8779C39.3136 11.8103 37.1525 11.8103 35.5424 12.8779C34.7373 13.433 34.0169 14.2016 34.0169 15.3545C33.9746 17.575 34.9915 22.6991 38.2542 22.6991C41.5593 22.6991 42.5339 17.575 42.4915 15.3545C42.4492 14.2016 41.7712 13.433 40.9661 12.8779Z" fill="#353535"/>
<path d="M43.678 24.7915C43.678 24.7915 49.3983 28.2076 50.1186 30.5988C50.839 32.9901 42.0254 31.5809 42.0254 31.5809L43.678 24.7915Z" fill="#EA8B00"/>
<path d="M32.7034 24.7915C32.7034 24.7915 26.983 28.2076 26.2627 30.5988C25.5424 32.9901 34.3559 31.5809 34.3559 31.5809L32.7034 24.7915Z" fill="#EA8B00"/>
<path d="M35.0339 52.5898C34.3983 53.2304 34.6102 54.426 34.6102 54.426H37.8729C37.8729 54.426 38.0424 53.2731 37.4068 52.5898H35.0339Z" fill="#242734"/>
<path d="M39.3559 52.5898C38.7203 53.2304 38.9322 54.426 38.9322 54.426H42.1949C42.1949 54.426 42.3644 53.2731 41.7288 52.5898H39.3559Z" fill="#242734"/>
<path d="M38.2119 40.42H34.2712V52.8461H38.2119V40.42Z" fill="#3F557A"/>
<path d="M42.5339 40.42H38.5932V52.8461H42.5339V40.42Z" fill="#3F557A"/>
<path d="M33.9746 42.7686H31.7712V55.0665H33.9746V42.7686Z" fill="#AEB1B1"/>
<path d="M44.9915 42.7686H42.7881V55.0665H44.9915V42.7686Z" fill="#AEB1B1"/>
<path d="M45.5847 42.4697C45.5847 41.7865 45.3729 41.2314 43.9746 41.2314H38.2119H38.1695H32.4491C31.0508 41.2314 30.839 41.7865 30.839 42.4697V42.5124C30.839 43.4518 31.3051 43.8361 32.5763 43.8361H38.2119H38.2542H43.8898C45.1186 43.7934 45.5847 43.4518 45.5847 42.4697Z" fill="#929696"/>
<path d="M44.9068 27.3962C43.2119 27.0973 40.6695 27.0119 38.2966 27.0119C35.9237 27.0119 33.339 27.0973 31.6864 27.3962C30.6695 27.567 29.9491 28.2502 30.0763 28.9335L32.1949 41.1887H38.339H44.483L46.6017 28.9335C46.6441 28.2502 45.9661 27.6097 44.9068 27.3962Z" fill="#AEB1B1"/>
</g>
<defs>
<clipPath id="clip0_10_4">
<rect width="35" height="43" fill="white" transform="translate(15.5 12.0665)"/>
</clipPath>
</defs>
</svg>
