<svg width="66" height="67" viewBox="0 0 66 67" fill="none" xmlns="http://www.w3.org/2000/svg">
<ellipse cx="33" cy="33.5665" rx="32.5" ry="33" fill="#D0F4DE"/>
<g clip-path="url(#clip0_10_5)">
<path d="M47.8684 47.2351C47.8684 47.984 41.5779 48.5665 33.8578 48.5665C26.1377 48.5665 19.8472 47.984 19.8472 47.2351C19.8472 46.4861 26.1377 45.9036 33.8578 45.9036C41.6188 45.9036 47.8684 46.4861 47.8684 47.2351Z" fill="white"/>
<path d="M47.705 47.1934C47.705 47.9008 41.4962 48.4833 33.8578 48.4833C26.2194 48.4833 20.0106 47.9008 20.0106 47.1934C20.0106 46.4861 26.2194 45.9036 33.8578 45.9036C41.5371 45.9036 47.705 46.4861 47.705 47.1934Z" fill="#FEFEFE"/>
<path d="M47.5416 47.1934C47.5416 47.9008 41.4145 48.4833 33.8578 48.4833C26.3011 48.4833 20.174 47.9008 20.174 47.1934C20.174 46.4861 26.3011 45.9036 33.8578 45.9036C41.4145 45.9036 47.5416 46.4861 47.5416 47.1934Z" fill="#FDFDFD"/>
<path d="M47.3782 47.1934C47.3782 47.9008 41.3328 48.4833 33.8578 48.4833C26.3828 48.4833 20.3374 47.9008 20.3374 47.1934C20.3374 46.4861 26.3828 45.9036 33.8578 45.9036C41.3328 45.9036 47.3782 46.4861 47.3782 47.1934Z" fill="#FCFDFD"/>
<path d="M47.2148 47.1518C47.2148 47.8592 41.2511 48.4001 33.8578 48.4001C26.5053 48.4001 20.5008 47.8176 20.5008 47.1518C20.5008 46.4445 26.4645 45.9036 33.8578 45.9036C41.2511 45.9036 47.2148 46.4861 47.2148 47.1518Z" fill="#FBFCFC"/>
<path d="M47.0514 47.1518C47.0514 47.8176 41.1694 48.4001 33.8578 48.4001C26.587 48.4001 20.6642 47.8592 20.6642 47.1518C20.6642 46.4861 26.5461 45.9036 33.8578 45.9036C41.1286 45.9036 47.0514 46.4861 47.0514 47.1518Z" fill="#FAFBFB"/>
<path d="M46.888 47.1518C46.888 47.8176 41.0469 48.3585 33.8986 48.3585C26.7095 48.3585 20.9092 47.8176 20.9092 47.1518C20.9092 46.4861 26.7504 45.9452 33.8986 45.9452C41.0469 45.9036 46.888 46.4861 46.888 47.1518Z" fill="#F9FAFA"/>
<path d="M46.7246 47.1102C46.7246 47.776 40.9652 48.3169 33.8986 48.3169C26.7912 48.3169 21.0726 47.776 21.0726 47.1102C21.0726 46.4445 26.8321 45.9036 33.8986 45.9036C40.9652 45.9036 46.7246 46.4445 46.7246 47.1102Z" fill="#F8F9F9"/>
<path d="M46.5613 47.1102C46.5613 47.776 40.8835 48.3169 33.8986 48.3169C26.9138 48.3169 21.236 47.776 21.236 47.1102C21.236 46.4445 26.9138 45.9036 33.8986 45.9036C40.8835 45.9036 46.5613 46.4445 46.5613 47.1102Z" fill="#F7F9F9"/>
<path d="M46.3979 47.1102C46.3979 47.776 40.8018 48.2753 33.8986 48.2753C26.9955 48.2753 21.3994 47.7344 21.3994 47.1102C21.3994 46.4445 26.9955 45.9452 33.8986 45.9452C40.761 45.9036 46.3979 46.4445 46.3979 47.1102Z" fill="#F6F8F8"/>
<path d="M46.1937 47.0686C46.1937 47.6927 40.6793 48.2337 33.8578 48.2337C27.0363 48.2337 21.5219 47.6927 21.5219 47.0686C21.5219 46.4445 27.0363 45.9036 33.8578 45.9036C40.6793 45.9036 46.1937 46.4445 46.1937 47.0686Z" fill="#F5F7F7"/>
<path d="M46.0303 47.0686C46.0303 47.6927 40.5976 48.2337 33.8578 48.2337C27.118 48.2337 21.6853 47.7344 21.6853 47.0686C21.6853 46.4445 27.118 45.9036 33.8578 45.9036C40.5976 45.9452 46.0303 46.4445 46.0303 47.0686Z" fill="#F4F6F6"/>
<path d="M45.8669 47.0686C45.8669 47.6928 40.475 48.1921 33.8578 48.1921C27.2406 48.1921 21.8487 47.6928 21.8487 47.0686C21.8487 46.4445 27.2406 45.9452 33.8578 45.9452C40.5159 45.9452 45.8669 46.4445 45.8669 47.0686Z" fill="#F3F6F6"/>
<path d="M45.7035 47.027C45.7035 47.6511 40.3933 48.1504 33.8578 48.1504C27.3222 48.1504 22.0121 47.6511 22.0121 47.027C22.0121 46.4029 27.3222 45.9036 33.8578 45.9036C40.3933 45.9452 45.7035 46.4445 45.7035 47.027Z" fill="#F2F5F5"/>
<path d="M45.5401 47.027C45.5401 47.6512 40.3116 48.1089 33.8578 48.1089C27.4039 48.1089 22.1755 47.6095 22.1755 47.027C22.1755 46.4029 27.4039 45.9452 33.8578 45.9452C40.3116 45.9452 45.5401 46.4445 45.5401 47.027Z" fill="#F1F4F4"/>
<path d="M45.3767 47.027C45.3767 47.6095 40.2299 48.1089 33.8578 48.1089C27.4856 48.1089 22.3389 47.6095 22.3389 47.027C22.3389 46.4445 27.4856 45.9452 33.8578 45.9452C40.2299 45.9452 45.3767 46.4029 45.3767 47.027Z" fill="#F0F3F3"/>
<path d="M45.2133 46.9854C45.2133 47.5679 40.1482 48.0672 33.8578 48.0672C27.6082 48.0672 22.5023 47.6095 22.5023 46.9854C22.5023 46.4029 27.5673 45.9036 33.8578 45.9036C40.1482 45.9452 45.2133 46.4029 45.2133 46.9854Z" fill="#EFF2F2"/>
<path d="M45.0499 46.9854C45.0499 47.5679 40.0666 48.0256 33.8986 48.0256C27.7307 48.0256 22.7473 47.5679 22.7473 46.9854C22.7473 46.4029 27.7307 45.9452 33.8986 45.9452C40.0257 45.9452 45.0499 46.4029 45.0499 46.9854Z" fill="#EEF2F2"/>
<path d="M44.8865 46.9854C44.8865 47.5679 39.944 48.0256 33.8986 48.0256C27.8124 48.0256 22.9107 47.5679 22.9107 46.9854C22.9107 46.4029 27.8532 45.9452 33.8986 45.9452C39.944 45.9452 44.8865 46.4029 44.8865 46.9854Z" fill="#EDF1F1"/>
<path d="M44.7231 46.9438C44.7231 47.5263 39.8623 47.984 33.8986 47.984C27.8941 47.984 23.0741 47.5263 23.0741 46.9438C23.0741 46.3613 27.9349 45.9036 33.8986 45.9036C39.8623 45.9452 44.7231 46.4029 44.7231 46.9438Z" fill="#EDF0F0"/>
<path d="M44.5598 46.9438C44.5598 47.4847 39.7806 47.9424 33.8986 47.9424C28.0166 47.9424 23.2375 47.4847 23.2375 46.9438C23.2375 46.4029 28.0166 45.9452 33.8986 45.9452C39.7806 45.9452 44.5598 46.4029 44.5598 46.9438Z" fill="#ECEFEF"/>
<path d="M44.3555 46.9438C44.3555 47.4847 39.6581 47.9424 33.8578 47.9424C28.0575 47.9424 23.36 47.4847 23.36 46.9438C23.36 46.4029 28.0575 45.9452 33.8578 45.9452C39.6581 45.9452 44.3555 46.4029 44.3555 46.9438Z" fill="#EBEEEE"/>
<path d="M44.1921 46.9022C44.1921 47.4431 39.5764 47.8592 33.8578 47.8592C28.1392 47.8592 23.5234 47.4431 23.5234 46.9022C23.5234 46.3613 28.1392 45.9452 33.8578 45.9452C39.5764 45.9452 44.1921 46.3613 44.1921 46.9022Z" fill="#EAEEEE"/>
<path d="M44.0287 46.9022C44.0287 47.4431 39.4947 47.8592 33.8578 47.8592C28.2617 47.8592 23.6868 47.4431 23.6868 46.9022C23.6868 46.3613 28.2209 45.9452 33.8578 45.9452C39.4947 45.9452 44.0287 46.3613 44.0287 46.9022Z" fill="#E9EDED"/>
<path d="M43.8653 46.9022C43.8653 47.4431 39.3722 47.8592 33.8578 47.8592C28.3434 47.8592 23.8502 47.4431 23.8502 46.9022C23.8502 46.3613 28.3434 45.9452 33.8578 45.9452C39.413 45.9452 43.8653 46.3613 43.8653 46.9022Z" fill="#E8ECEC"/>
<path d="M43.702 46.8606C43.702 47.3599 39.2905 47.776 33.8578 47.776C28.4251 47.776 24.0136 47.3599 24.0136 46.8606C24.0136 46.3613 28.4251 45.9452 33.8578 45.9452C39.2905 45.9452 43.702 46.3613 43.702 46.8606Z" fill="#E7EBEB"/>
<path d="M43.5386 46.8606C43.5386 47.3599 39.2088 47.776 33.8578 47.776C28.5068 47.776 24.177 47.3599 24.177 46.8606C24.177 46.3613 28.5068 45.9452 33.8578 45.9452C39.2088 45.9452 43.5386 46.3613 43.5386 46.8606Z" fill="#E6EAEA"/>
<path d="M43.3752 46.8606C43.3752 47.3599 39.1271 47.776 33.8578 47.776C28.6293 47.776 24.3404 47.3599 24.3404 46.8606C24.3404 46.3613 28.5885 45.9452 33.8578 45.9452C39.1271 45.9452 43.3752 46.3613 43.3752 46.8606Z" fill="#E5EAEA"/>
<path d="M43.2118 46.819C43.2118 47.3183 39.0454 47.6928 33.8986 47.6928C28.7519 47.6928 24.5855 47.3183 24.5855 46.819C24.5855 46.3197 28.7519 45.9452 33.8986 45.9452C39.0454 45.9452 43.2118 46.3613 43.2118 46.819Z" fill="#E4E9E9"/>
<path d="M43.0484 46.819C43.0484 47.2767 38.9637 47.6928 33.8986 47.6928C28.8336 47.6928 24.7489 47.3183 24.7489 46.819C24.7489 46.3613 28.8336 45.9452 33.8986 45.9452C38.9228 45.9452 43.0484 46.3613 43.0484 46.819Z" fill="#E3E8E8"/>
<path d="M42.885 46.8189C42.885 47.2766 38.8412 47.6511 33.8986 47.6511C28.9153 47.6511 24.9123 47.2766 24.9123 46.8189C24.9123 46.3612 28.9561 45.9868 33.8986 45.9868C38.8412 45.9452 42.885 46.3196 42.885 46.8189Z" fill="#E2E7E7"/>
<path d="M42.7216 46.7774C42.7216 47.2351 38.7595 47.6095 33.8987 47.6095C29.0378 47.6095 25.0757 47.2351 25.0757 46.7774C25.0757 46.3197 29.0378 45.9452 33.8987 45.9452C38.7595 45.9452 42.7216 46.3197 42.7216 46.7774Z" fill="#E1E7E7"/>
<path d="M42.5174 46.7774C42.5174 47.2351 38.6369 47.6095 33.8578 47.6095C29.0787 47.6095 25.1982 47.2351 25.1982 46.7774C25.1982 46.3197 29.0787 45.9452 33.8578 45.9452C38.6778 45.9452 42.5174 46.3197 42.5174 46.7774Z" fill="#E0E6E6"/>
<path d="M42.354 46.7773C42.354 47.235 38.5552 47.5679 33.8578 47.5679C29.1604 47.5679 25.3616 47.1934 25.3616 46.7773C25.3616 46.3196 29.1604 45.9868 33.8578 45.9868C38.5552 45.9452 42.354 46.3196 42.354 46.7773Z" fill="#DFE5E5"/>
<path d="M42.1906 46.7358C42.1906 47.1518 38.4735 47.5263 33.8578 47.5263C29.2421 47.5263 25.525 47.1935 25.525 46.7358C25.525 46.3197 29.2421 45.9452 33.8578 45.9452C38.4735 45.9868 42.1906 46.3197 42.1906 46.7358Z" fill="#DEE4E4"/>
<path d="M42.0272 46.7357C42.0272 47.1518 38.3918 47.4847 33.8578 47.4847C29.3646 47.4847 25.6884 47.1518 25.6884 46.7357C25.6884 46.3197 29.3238 45.9868 33.8578 45.9868C38.3918 45.9868 42.0272 46.3197 42.0272 46.7357Z" fill="#DDE3E3"/>
<path d="M41.8639 46.7357C41.8639 47.1518 38.2693 47.4847 33.8578 47.4847C29.4463 47.4847 25.8517 47.1518 25.8517 46.7357C25.8517 46.3197 29.4463 45.9868 33.8578 45.9868C38.2693 45.9868 41.8639 46.3197 41.8639 46.7357Z" fill="#DCE3E3"/>
<path d="M41.7005 46.6941C41.7005 47.1102 38.1876 47.4431 33.8578 47.4431C29.528 47.4431 26.0151 47.1102 26.0151 46.6941C26.0151 46.2781 29.528 45.9452 33.8578 45.9452C38.1876 45.9868 41.7005 46.3197 41.7005 46.6941Z" fill="#DBE2E2"/>
<path d="M41.5371 46.6941C41.5371 47.1102 38.1059 47.4015 33.8578 47.4015C29.6097 47.4015 26.1785 47.0686 26.1785 46.6941C26.1785 46.278 29.6097 45.9868 33.8578 45.9868C38.1059 45.9868 41.5371 46.278 41.5371 46.6941Z" fill="#DAE1E1"/>
<path d="M34.0212 42.0339C34.0212 42.7829 27.7307 43.3654 20.0106 43.3654C12.2905 43.3238 6 42.7413 6 42.0339C6 41.285 12.2905 40.7025 20.0106 40.7025C27.7307 40.7025 34.0212 41.285 34.0212 42.0339Z" fill="white"/>
<path d="M33.8578 41.9923C33.8578 42.6997 27.649 43.2822 20.0106 43.2822C12.3722 43.2822 6.16339 42.6997 6.16339 41.9923C6.16339 41.285 12.3722 40.7025 20.0106 40.7025C27.649 40.7025 33.8578 41.285 33.8578 41.9923Z" fill="#FEFEFE"/>
<path d="M33.6944 41.9923C33.6944 42.6997 27.5673 43.2822 20.0106 43.2822C12.4539 43.2822 6.32678 42.6997 6.32678 41.9923C6.32678 41.285 12.4539 40.7025 20.0106 40.7025C27.5673 40.7025 33.6944 41.285 33.6944 41.9923Z" fill="#FDFDFD"/>
<path d="M33.531 41.9923C33.531 42.6997 27.4856 43.2822 20.0106 43.2822C12.5356 43.2406 6.49017 42.6997 6.49017 41.9923C6.49017 41.285 12.5356 40.7025 20.0106 40.7025C27.4856 40.7025 33.531 41.285 33.531 41.9923Z" fill="#FCFDFD"/>
<path d="M33.3676 41.9507C33.3676 42.6581 27.4039 43.199 20.0106 43.199C12.6581 43.199 6.65355 42.6165 6.65355 41.9507C6.65355 41.2434 12.6172 40.7025 20.0106 40.7025C27.3631 40.7025 33.3676 41.285 33.3676 41.9507Z" fill="#FBFCFC"/>
<path d="M33.1634 41.9507C33.1634 42.6165 27.2814 43.199 19.9697 43.199C12.6989 43.199 6.77609 42.6581 6.77609 41.9507C6.77609 41.285 12.6581 40.7025 19.9697 40.7025C27.2814 40.7025 33.1634 41.285 33.1634 41.9507Z" fill="#FAFBFB"/>
<path d="M33 41.9507C33 42.6165 27.1588 43.1574 20.0106 43.1574C12.8215 43.1574 7.02118 42.6165 7.02118 41.9507C7.02118 41.285 12.8623 40.7441 20.0106 40.7441C27.1997 40.7025 33 41.2434 33 41.9507Z" fill="#F9FAFA"/>
<path d="M32.8366 41.9091C32.8366 42.5749 27.0772 43.1158 20.0106 43.1158C12.9032 43.1158 7.18457 42.5749 7.18457 41.9091C7.18457 41.2434 12.944 40.7025 20.0106 40.7025C27.118 40.7025 32.8366 41.2434 32.8366 41.9091Z" fill="#F8F9F9"/>
<path d="M32.6732 41.9091C32.6732 42.5749 26.9955 43.1158 20.0106 43.1158C13.0257 43.1158 7.34796 42.5749 7.34796 41.9091C7.34796 41.2434 13.0257 40.7025 20.0106 40.7025C26.9955 40.7025 32.6732 41.2434 32.6732 41.9091Z" fill="#F7F9F9"/>
<path d="M32.5098 41.9091C32.5098 42.5749 26.9138 43.0742 20.0106 43.0742C13.1074 43.0742 7.51135 42.5333 7.51135 41.9091C7.51135 41.2434 13.1074 40.7441 20.0106 40.7441C26.9138 40.7025 32.5098 41.2434 32.5098 41.9091Z" fill="#F6F8F8"/>
<path d="M32.3464 41.8675C32.3464 42.4916 26.8321 43.0326 20.0106 43.0326C13.1891 43.0326 7.67473 42.4916 7.67473 41.8675C7.67473 41.2434 13.1891 40.7025 20.0106 40.7025C26.8321 40.7025 32.3464 41.2434 32.3464 41.8675Z" fill="#F5F7F7"/>
<path d="M32.1831 41.8675C32.1831 42.4916 26.7504 43.0326 20.0106 43.0326C13.2708 43.0326 7.83812 42.5332 7.83812 41.8675C7.83812 41.2434 13.2708 40.7025 20.0106 40.7025C26.7504 40.7025 32.1831 41.2434 32.1831 41.8675Z" fill="#F4F6F6"/>
<path d="M32.0197 41.8675C32.0197 42.4916 26.6278 42.991 20.0106 42.991C13.3933 42.991 8.00151 42.4916 8.00151 41.8675C8.00151 41.2434 13.3933 40.7441 20.0106 40.7441C26.6278 40.7025 32.0197 41.2434 32.0197 41.8675Z" fill="#F3F6F6"/>
<path d="M31.8563 41.8259C31.8563 42.45 26.5461 42.9493 20.0106 42.9493C13.475 42.9493 8.1649 42.45 8.1649 41.8259C8.1649 41.2018 13.475 40.7025 20.0106 40.7025C26.5461 40.7441 31.8563 41.2434 31.8563 41.8259Z" fill="#F2F5F5"/>
<path d="M31.6929 41.8259C31.6929 42.45 26.4645 42.9077 20.0106 42.9077C13.5567 42.9077 8.32829 42.4084 8.32829 41.8259C8.32829 41.2017 13.5567 40.744 20.0106 40.744C26.4645 40.744 31.6929 41.2017 31.6929 41.8259Z" fill="#F1F4F4"/>
<path d="M31.5295 41.8259C31.5295 42.4084 26.3828 42.9077 20.0106 42.9077C13.6384 42.9077 8.49168 42.4084 8.49168 41.8259C8.49168 41.2434 13.6384 40.744 20.0106 40.744C26.3419 40.744 31.5295 41.2017 31.5295 41.8259Z" fill="#F0F3F3"/>
<path d="M31.3661 41.7843C31.3661 42.3668 26.3011 42.8661 20.0106 42.8661C13.761 42.8661 8.65508 42.4084 8.65508 41.7843C8.65508 41.2018 13.7201 40.7025 20.0106 40.7025C26.2602 40.7441 31.3661 41.2018 31.3661 41.7843Z" fill="#EFF2F2"/>
<path d="M31.1619 41.7843C31.1619 42.3668 26.1785 42.8245 20.0106 42.8245C13.8427 42.8245 8.8593 42.3668 8.8593 41.7843C8.8593 41.2017 13.8427 40.744 20.0106 40.744C26.1785 40.744 31.1619 41.2017 31.1619 41.7843Z" fill="#EEF2F2"/>
<path d="M30.9985 41.7843C30.9985 42.3668 26.056 42.8245 20.0106 42.8245C13.9244 42.8245 9.02269 42.3668 9.02269 41.7843C9.02269 41.2017 13.9652 40.744 20.0106 40.744C26.0968 40.744 30.9985 41.2017 30.9985 41.7843Z" fill="#EDF1F1"/>
<path d="M30.8351 41.7427C30.8351 42.3252 25.9743 42.7829 20.0106 42.7829C14.0061 42.7829 9.18608 42.3252 9.18608 41.7427C9.18608 41.1602 14.0469 40.7025 20.0106 40.7025C25.9743 40.7441 30.8351 41.2018 30.8351 41.7427Z" fill="#EDF0F0"/>
<path d="M30.6717 41.7427C30.6717 42.2836 25.8926 42.7413 20.0106 42.7413C14.1286 42.7413 9.34947 42.2836 9.34947 41.7427C9.34947 41.2017 14.1286 40.744 20.0106 40.744C25.8926 40.744 30.6717 41.2017 30.6717 41.7427Z" fill="#ECEFEF"/>
<path d="M30.5083 41.7427C30.5083 42.2836 25.8109 42.6997 20.0106 42.6997C14.2103 42.6997 9.51286 42.2836 9.51286 41.7427C9.51286 41.2017 14.2103 40.744 20.0106 40.744C25.8109 40.744 30.5083 41.2017 30.5083 41.7427Z" fill="#EBEEEE"/>
<path d="M30.3449 41.7011C30.3449 42.242 25.7292 42.6581 20.0106 42.6581C14.292 42.6581 9.67625 42.242 9.67625 41.7011C9.67625 41.1601 14.292 40.744 20.0106 40.744C25.7292 40.744 30.3449 41.1601 30.3449 41.7011Z" fill="#EAEEEE"/>
<path d="M30.1815 41.7011C30.1815 42.242 25.6475 42.6581 20.0106 42.6581C14.4145 42.6581 9.83963 42.242 9.83963 41.7011C9.83963 41.1601 14.3737 40.744 20.0106 40.744C25.6067 40.744 30.1815 41.1601 30.1815 41.7011Z" fill="#E9EDED"/>
<path d="M30.0182 41.7011C30.0182 42.242 25.525 42.6581 20.0106 42.6581C14.4962 42.6581 10.003 42.242 10.003 41.7011C10.003 41.1601 14.4962 40.744 20.0106 40.744C25.525 40.744 30.0182 41.1601 30.0182 41.7011Z" fill="#E8ECEC"/>
<path d="M29.8548 41.6594C29.8548 42.1588 25.4433 42.5748 20.0106 42.5748C14.5779 42.5748 10.1664 42.1588 10.1664 41.6594C10.1664 41.1601 14.5779 40.744 20.0106 40.744C25.4433 40.744 29.8548 41.1601 29.8548 41.6594Z" fill="#E7EBEB"/>
<path d="M29.6914 41.6594C29.6914 42.1588 25.3616 42.5748 20.0106 42.5748C14.6596 42.5748 10.3298 42.1588 10.3298 41.6594C10.3298 41.1601 14.6596 40.744 20.0106 40.744C25.3616 40.744 29.6914 41.1601 29.6914 41.6594Z" fill="#E6EAEA"/>
<path d="M29.528 41.6594C29.528 42.1588 25.2799 42.5748 20.0106 42.5748C14.7822 42.5748 10.4932 42.1588 10.4932 41.6594C10.4932 41.1601 14.7413 40.744 20.0106 40.744C25.239 40.744 29.528 41.1601 29.528 41.6594Z" fill="#E5EAEA"/>
<path d="M29.3237 41.6178C29.3237 42.1171 25.1573 42.4916 20.0106 42.4916C14.8638 42.4916 10.6974 42.1171 10.6974 41.6178C10.6974 41.1185 14.8638 40.744 20.0106 40.744C25.1573 40.744 29.3237 41.1601 29.3237 41.6178Z" fill="#E4E9E9"/>
<path d="M29.1604 41.6178C29.1604 42.0755 25.0756 42.4916 20.0106 42.4916C14.9455 42.4916 10.8608 42.1171 10.8608 41.6178C10.8608 41.1601 14.9455 40.744 20.0106 40.744C25.0756 40.744 29.1604 41.1601 29.1604 41.6178Z" fill="#E3E8E8"/>
<path d="M28.997 41.6178C28.997 42.0755 24.9531 42.45 20.0106 42.45C15.0272 42.45 11.0242 42.0755 11.0242 41.6178C11.0242 41.1601 15.0681 40.7857 20.0106 40.7857C24.9939 40.7441 28.997 41.1185 28.997 41.6178Z" fill="#E2E7E7"/>
<path d="M28.8336 41.5762C28.8336 42.0339 24.8714 42.4084 20.0106 42.4084C15.1498 42.4084 11.1876 42.0339 11.1876 41.5762C11.1876 41.1185 15.1498 40.744 20.0106 40.744C24.8714 40.744 28.8336 41.1185 28.8336 41.5762Z" fill="#E1E7E7"/>
<path d="M28.6702 41.5762C28.6702 42.0339 24.7897 42.4084 20.0106 42.4084C15.2315 42.4084 11.351 42.0339 11.351 41.5762C11.351 41.1185 15.2315 40.744 20.0106 40.744C24.7897 40.744 28.6702 41.1185 28.6702 41.5762Z" fill="#E0E6E6"/>
<path d="M28.5068 41.5762C28.5068 42.0339 24.708 42.3668 20.0106 42.3668C15.3132 42.3668 11.5144 41.9923 11.5144 41.5762C11.5144 41.1185 15.3132 40.7857 20.0106 40.7857C24.708 40.7857 28.5068 41.1185 28.5068 41.5762Z" fill="#DFE5E5"/>
<path d="M28.3434 41.5346C28.3434 41.9507 24.6263 42.3252 20.0106 42.3252C15.3949 42.3252 11.6778 41.9923 11.6778 41.5346C11.6778 41.1185 15.3949 40.744 20.0106 40.744C24.6263 40.744 28.3434 41.1185 28.3434 41.5346Z" fill="#DEE4E4"/>
<path d="M28.18 41.5346C28.18 41.9507 24.5446 42.2836 20.0106 42.2836C15.4766 42.2836 11.8412 41.9507 11.8412 41.5346C11.8412 41.1185 15.4766 40.744 20.0106 40.744C24.5446 40.744 28.18 41.1185 28.18 41.5346Z" fill="#DDE3E3"/>
<path d="M28.0167 41.5346C28.0167 41.9507 24.4221 42.2836 20.0106 42.2836C15.5991 42.2836 12.0045 41.9507 12.0045 41.5346C12.0045 41.1185 15.5991 40.7857 20.0106 40.7857C24.4221 40.7857 28.0167 41.1185 28.0167 41.5346Z" fill="#DCE3E3"/>
<path d="M27.8533 41.493C27.8533 41.9091 24.3404 42.242 20.0106 42.242C15.6808 42.242 12.1679 41.9091 12.1679 41.493C12.1679 41.0769 15.6808 40.744 20.0106 40.744C24.3404 40.7857 27.8533 41.0769 27.8533 41.493Z" fill="#DBE2E2"/>
<path d="M27.6899 41.493C27.6899 41.9091 24.2587 42.2004 20.0106 42.2004C15.7625 42.2004 12.3313 41.8675 12.3313 41.493C12.3313 41.0769 15.7625 40.7857 20.0106 40.7857C24.2587 40.7857 27.6899 41.0769 27.6899 41.493Z" fill="#DAE1E1"/>
<path d="M60 41.7011C60 42.45 53.7095 43.0325 45.9894 43.0325C38.2693 43.0325 31.9788 42.45 31.9788 41.7011C31.9788 40.9521 38.2693 40.3696 45.9894 40.3696C53.7095 40.4112 60 40.9937 60 41.7011Z" fill="white"/>
<path d="M59.8366 41.701C59.8366 42.4084 53.6278 42.9909 45.9894 42.9909C38.351 42.9909 32.1422 42.4084 32.1422 41.701C32.1422 40.9937 38.351 40.4112 45.9894 40.4112C53.6278 40.4112 59.8366 40.9937 59.8366 41.701Z" fill="#FEFEFE"/>
<path d="M59.6732 41.701C59.6732 42.4084 53.5461 42.9909 45.9894 42.9909C38.4327 42.9909 32.3056 42.4084 32.3056 41.701C32.3056 40.9937 38.4327 40.4112 45.9894 40.4112C53.5461 40.4112 59.6732 40.9937 59.6732 41.701Z" fill="#FDFDFD"/>
<path d="M59.5098 41.6594C59.5098 42.3668 53.4645 42.9493 45.9894 42.9493C38.5144 42.9493 32.469 42.3668 32.469 41.6594C32.469 40.9521 38.5144 40.3696 45.9894 40.3696C53.4645 40.4112 59.5098 40.9521 59.5098 41.6594Z" fill="#FCFDFD"/>
<path d="M59.3465 41.6594C59.3465 42.3668 53.3828 42.9077 45.9894 42.9077C38.6369 42.9077 32.6324 42.3252 32.6324 41.6594C32.6324 40.9521 38.5961 40.4112 45.9894 40.4112C53.3419 40.4112 59.3465 40.9521 59.3465 41.6594Z" fill="#FBFCFC"/>
<path d="M59.1422 41.6594C59.1422 42.3252 53.2602 42.9077 45.9486 42.9077C38.6778 42.9077 32.7549 42.3668 32.7549 41.6594C32.7549 40.9937 38.6369 40.4112 45.9486 40.4112C53.2602 40.4112 59.1422 40.9521 59.1422 41.6594Z" fill="#FAFBFB"/>
<path d="M58.9788 41.6178C58.9788 42.2836 53.1377 42.8245 45.9894 42.8245C38.8003 42.8245 33 42.2836 33 41.6178C33 40.9521 38.8412 40.4112 45.9894 40.4112C53.1785 40.4112 58.9788 40.9521 58.9788 41.6178Z" fill="#F9FAFA"/>
<path d="M58.8154 41.6178C58.8154 42.2836 53.056 42.8245 45.9894 42.8245C38.882 42.8245 33.1634 42.2836 33.1634 41.6178C33.1634 40.9521 38.9228 40.4112 45.9894 40.4112C53.0968 40.4112 58.8154 40.9521 58.8154 41.6178Z" fill="#F8F9F9"/>
<path d="M58.652 41.6178C58.652 42.2836 52.9743 42.8245 45.9894 42.8245C39.0045 42.8245 33.3268 42.2836 33.3268 41.6178C33.3268 40.9521 39.0045 40.4112 45.9894 40.4112C52.9743 40.4112 58.652 40.9521 58.652 41.6178Z" fill="#F7F9F9"/>
<path d="M58.4887 41.5762C58.4887 42.242 52.8926 42.7413 45.9894 42.7413C39.0862 42.7413 33.4902 42.2003 33.4902 41.5762C33.4902 40.9105 39.0862 40.4112 45.9894 40.4112C52.8926 40.4112 58.4887 40.9521 58.4887 41.5762Z" fill="#F6F8F8"/>
<path d="M58.3253 41.5762C58.3253 42.2003 52.8109 42.7413 45.9894 42.7413C39.1679 42.7413 33.6536 42.2003 33.6536 41.5762C33.6536 40.9521 39.1679 40.4112 45.9894 40.4112C52.8109 40.4112 58.3253 40.9521 58.3253 41.5762Z" fill="#F5F7F7"/>
<path d="M58.1619 41.5762C58.1619 42.2003 52.7292 42.7413 45.9894 42.7413C39.2496 42.7413 33.817 42.242 33.817 41.5762C33.817 40.9521 39.2496 40.4112 45.9894 40.4112C52.6884 40.4112 58.1619 40.9105 58.1619 41.5762Z" fill="#F4F6F6"/>
<path d="M57.9985 41.5346C57.9985 42.1587 52.6067 42.658 45.9894 42.658C39.3722 42.658 33.9803 42.1587 33.9803 41.5346C33.9803 40.9105 39.3722 40.4112 45.9894 40.4112C52.6067 40.4112 57.9985 40.9105 57.9985 41.5346Z" fill="#F3F6F6"/>
<path d="M57.8351 41.5346C57.8351 42.1587 52.525 42.658 45.9894 42.658C39.4539 42.658 34.1437 42.1587 34.1437 41.5346C34.1437 40.9105 39.4539 40.4112 45.9894 40.4112C52.525 40.4112 57.8351 40.9105 57.8351 41.5346Z" fill="#F2F5F5"/>
<path d="M57.6717 41.5346C57.6717 42.1587 52.4433 42.6164 45.9894 42.6164C39.5355 42.6164 34.3071 42.1171 34.3071 41.5346C34.3071 40.9105 39.5355 40.4528 45.9894 40.4528C52.4433 40.4112 57.6717 40.9105 57.6717 41.5346Z" fill="#F1F4F4"/>
<path d="M57.5083 41.493C57.5083 42.0755 52.3616 42.5748 45.9894 42.5748C39.6172 42.5748 34.4705 42.0755 34.4705 41.493C34.4705 40.9105 39.6172 40.4112 45.9894 40.4112C52.3207 40.4112 57.5083 40.9105 57.5083 41.493Z" fill="#F0F3F3"/>
<path d="M57.3041 41.493C57.3041 42.0755 52.239 42.5748 45.9486 42.5748C39.6989 42.5748 34.593 42.0755 34.593 41.493C34.593 40.9105 39.6581 40.4112 45.9486 40.4112C52.239 40.4112 57.3041 40.9105 57.3041 41.493Z" fill="#EFF2F2"/>
<path d="M57.1407 41.493C57.1407 42.0755 52.1573 42.5332 45.9894 42.5332C39.8215 42.5332 34.8381 42.0755 34.8381 41.493C34.8381 40.9105 39.8215 40.4528 45.9894 40.4528C52.1573 40.4112 57.1407 40.9105 57.1407 41.493Z" fill="#EEF2F2"/>
<path d="M56.9773 41.4514C56.9773 42.0339 52.0348 42.4916 45.9894 42.4916C39.9032 42.4916 35.0015 42.0339 35.0015 41.4514C35.0015 40.8689 39.944 40.4112 45.9894 40.4112C52.0757 40.4112 56.9773 40.9105 56.9773 41.4514Z" fill="#EDF1F1"/>
<path d="M56.8139 41.4514C56.8139 42.0339 51.9531 42.4916 45.9894 42.4916C39.9849 42.4916 35.1649 42.0339 35.1649 41.4514C35.1649 40.8689 40.0257 40.4112 45.9894 40.4112C51.9531 40.4112 56.8139 40.8689 56.8139 41.4514Z" fill="#EDF0F0"/>
<path d="M56.6505 41.4514C56.6505 41.9923 51.8714 42.45 45.9894 42.45C40.1074 42.45 35.3283 41.9923 35.3283 41.4514C35.3283 40.9105 40.1074 40.4528 45.9894 40.4528C51.8714 40.4112 56.6505 40.8689 56.6505 41.4514Z" fill="#ECEFEF"/>
<path d="M56.4871 41.4098C56.4871 41.9507 51.7897 42.4084 45.9894 42.4084C40.1891 42.4084 35.4917 41.9507 35.4917 41.4098C35.4917 40.8689 40.1891 40.4112 45.9894 40.4112C51.7897 40.4112 56.4871 40.8689 56.4871 41.4098Z" fill="#EBEEEE"/>
<path d="M56.3237 41.4098C56.3237 41.9507 51.708 42.3668 45.9894 42.3668C40.2708 42.3668 35.6551 41.9507 35.6551 41.4098C35.6551 40.8689 40.2708 40.4528 45.9894 40.4528C51.708 40.4528 56.3237 40.8689 56.3237 41.4098Z" fill="#EAEEEE"/>
<path d="M56.1604 41.4098C56.1604 41.9507 51.6263 42.3668 45.9894 42.3668C40.3933 42.3668 35.8185 41.9507 35.8185 41.4098C35.8185 40.8689 40.3525 40.4528 45.9894 40.4528C51.5855 40.4528 56.1604 40.8689 56.1604 41.4098Z" fill="#E9EDED"/>
<path d="M55.997 41.3682C55.997 41.9091 51.5038 42.3252 45.9894 42.3252C40.475 42.3252 35.9818 41.9091 35.9818 41.3682C35.9818 40.8273 40.475 40.4112 45.9894 40.4112C51.5038 40.4528 55.997 40.8689 55.997 41.3682Z" fill="#E8ECEC"/>
<path d="M55.8336 41.3682C55.8336 41.8675 51.4221 42.2836 45.9894 42.2836C40.5567 42.2836 36.1452 41.8675 36.1452 41.3682C36.1452 40.8689 40.5567 40.4528 45.9894 40.4528C51.4221 40.4528 55.8336 40.8689 55.8336 41.3682Z" fill="#E7EBEB"/>
<path d="M55.6702 41.3682C55.6702 41.8675 51.3404 42.2836 45.9894 42.2836C40.6384 42.2836 36.3086 41.8675 36.3086 41.3682C36.3086 40.8689 40.6384 40.4528 45.9894 40.4528C51.3404 40.4528 55.6702 40.8273 55.6702 41.3682Z" fill="#E6EAEA"/>
<path d="M55.4659 41.3266C55.4659 41.8259 51.2178 42.242 45.9486 42.242C40.7201 42.242 36.4312 41.8259 36.4312 41.3266C36.4312 40.8273 40.6793 40.4112 45.9486 40.4112C51.2178 40.4528 55.4659 40.8273 55.4659 41.3266Z" fill="#E5EAEA"/>
<path d="M55.3026 41.3266C55.3026 41.8259 51.1362 42.2004 45.9894 42.2004C40.8427 42.2004 36.6762 41.8259 36.6762 41.3266C36.6762 40.8273 40.8427 40.4528 45.9894 40.4528C51.1362 40.4528 55.3026 40.8273 55.3026 41.3266Z" fill="#E4E9E9"/>
<path d="M55.1392 41.3266C55.1392 41.7843 51.0545 42.2004 45.9894 42.2004C40.9244 42.2004 36.8396 41.8259 36.8396 41.3266C36.8396 40.8689 40.9244 40.4528 45.9894 40.4528C51.0545 40.4528 55.1392 40.8273 55.1392 41.3266Z" fill="#E3E8E8"/>
<path d="M54.9758 41.285C54.9758 41.7427 50.9319 42.1171 45.9894 42.1171C41.006 42.1171 37.003 41.7427 37.003 41.285C37.003 40.8273 41.0469 40.4528 45.9894 40.4528C50.9728 40.4528 54.9758 40.8273 54.9758 41.285Z" fill="#E2E7E7"/>
<path d="M54.8124 41.285C54.8124 41.7427 50.8502 42.1171 45.9894 42.1171C41.1286 42.1171 37.1664 41.7427 37.1664 41.285C37.1664 40.8273 41.1286 40.4528 45.9894 40.4528C50.8502 40.4528 54.8124 40.8273 54.8124 41.285Z" fill="#E1E7E7"/>
<path d="M54.649 41.285C54.649 41.7427 50.7685 42.1171 45.9894 42.1171C41.2103 42.1171 37.3298 41.7427 37.3298 41.285C37.3298 40.8273 41.2103 40.4528 45.9894 40.4528C50.7685 40.4528 54.649 40.8273 54.649 41.285Z" fill="#E0E6E6"/>
<path d="M54.4856 41.2434C54.4856 41.7011 50.6868 42.0339 45.9894 42.0339C41.292 42.0339 37.4932 41.6594 37.4932 41.2434C37.4932 40.7857 41.292 40.4528 45.9894 40.4528C50.6868 40.4528 54.4856 40.8273 54.4856 41.2434Z" fill="#DFE5E5"/>
<path d="M54.3222 41.2434C54.3222 41.6594 50.6052 42.0339 45.9894 42.0339C41.3737 42.0339 37.6566 41.7011 37.6566 41.2434C37.6566 40.8273 41.3737 40.4528 45.9894 40.4528C50.6052 40.4528 54.3222 40.7857 54.3222 41.2434Z" fill="#DEE4E4"/>
<path d="M54.1589 41.2433C54.1589 41.6594 50.5235 41.9923 45.9894 41.9923C41.4962 41.9923 37.82 41.6594 37.82 41.2433C37.82 40.8273 41.4554 40.4944 45.9894 40.4944C50.4826 40.4528 54.1589 40.7856 54.1589 41.2433Z" fill="#DDE3E3"/>
<path d="M53.9955 41.2018C53.9955 41.6178 50.4009 41.9507 45.9894 41.9507C41.5779 41.9507 37.9834 41.6178 37.9834 41.2018C37.9834 40.7857 41.5779 40.4528 45.9894 40.4528C50.4009 40.4528 53.9955 40.7857 53.9955 41.2018Z" fill="#DCE3E3"/>
<path d="M53.8321 41.2018C53.8321 41.6178 50.3192 41.9507 45.9894 41.9507C41.6596 41.9507 38.1468 41.6178 38.1468 41.2018C38.1468 40.7857 41.6596 40.4528 45.9894 40.4528C50.3192 40.4528 53.8321 40.7857 53.8321 41.2018Z" fill="#DBE2E2"/>
<path d="M53.6278 41.2017C53.6278 41.6178 50.1967 41.9091 45.9486 41.9091C41.7005 41.9091 38.2693 41.5762 38.2693 41.2017C38.2693 40.7857 41.7005 40.4944 45.9486 40.4944C50.2375 40.4528 53.6278 40.7857 53.6278 41.2017Z" fill="#DAE1E1"/>
<path d="M19.2753 40.7856C19.2753 40.7856 17.5598 40.8689 17.4372 40.7856C17.3147 40.7024 16.7837 38.0395 16.7837 37.6234C16.7837 37.2073 16.9062 35.8342 17.4372 35.8342C17.9682 35.8342 21.8079 34.794 22.298 35.6261C22.829 36.4167 21.0726 41.8259 19.2753 40.7856Z" fill="#CCCCCC"/>
<path d="M19.2753 31.2572L16.8654 30.009V35.5846C16.8654 35.5846 17.8048 36.708 19.2753 36.708C21.0318 36.708 21.6853 35.6678 21.6853 35.6678V30.8411L19.2753 31.2572Z" fill="#FFDBA8"/>
<path d="M21.6853 32.1726C21.6853 32.1726 20.5416 33.2545 16.8654 35.2933V31.6317L21.6853 32.1726Z" fill="#F0BD6D"/>
<path d="M19.2754 35.3765V37.4569L18.6626 37.665L17.764 36.1255C17.764 36.1671 18.581 35.4181 19.2754 35.3765Z" fill="#C94D4D"/>
<path d="M16.8654 33.9618L16.416 34.2115L17.5189 38.0811L19.2754 35.3765C19.2754 35.3765 18.2542 35.2101 16.8654 33.9618Z" fill="#DFE1DE"/>
<path d="M15.4766 27.0547C15.4766 27.0547 16.0484 31.5485 16.171 31.7981C16.2935 32.0062 18.5401 33.2545 19.2753 33.2128V22.2697C19.2753 22.2697 14.5779 20.3141 15.4766 27.0547Z" fill="#FFDBA8"/>
<path d="M23.0333 27.0547C23.0333 27.0547 22.4614 31.5485 22.3389 31.7981C22.2163 32.0062 19.9697 33.2544 19.2345 33.2128V22.2697C19.2753 22.2697 23.6868 21.3543 23.0333 27.0547Z" fill="#FFDBA8"/>
<path d="M22.3797 29.7593C22.3797 29.7593 23.0333 30.009 23.4418 28.6775C23.8911 27.1796 23.5643 26.4722 23.1558 26.5138C22.9924 26.5138 22.9107 26.5554 22.7882 26.597C22.5023 26.7635 22.4206 27.0963 22.4206 27.0963L22.3797 29.7593Z" fill="#FFDBA8"/>
<path d="M16.1301 29.7593C16.1301 29.7593 15.4766 30.009 15.0681 28.6775C14.6188 27.1796 14.9047 26.4722 15.354 26.5138C15.4766 26.5138 15.5991 26.5554 15.7216 26.597C16.0076 26.7635 16.0893 27.0963 16.0893 27.0963L16.1301 29.7593Z" fill="#FFDBA8"/>
<path d="M15.0681 23.0187C14.7413 23.9341 15.3949 26.6386 15.3949 26.6386L15.8442 27.346L15.7216 25.8481C15.7216 25.8481 16.6611 23.8092 16.416 23.0187L15.8033 22.1033C15.8033 22.1033 15.1498 22.7274 15.0681 23.0187Z" fill="#A83D0D"/>
<path d="M23.4826 23.0187C23.8094 23.9341 23.1558 26.6386 23.1558 26.6386L22.7065 27.3044L22.8291 25.8065C22.8291 25.8065 21.8896 23.7676 22.1347 22.9771L22.7065 22.1033C22.7065 22.1033 23.3601 22.7274 23.4826 23.0187Z" fill="#A83D0D"/>
<path d="M19.2753 20.1893C18.1725 20.1893 16.5386 20.6886 15.8442 22.1033L16.416 22.9771C16.416 22.9771 18.0091 23.8509 19.3162 23.9341C20.1331 23.9757 21.4402 24.0173 22.4614 23.2267L22.7065 22.1033C22.7065 22.1033 21.8896 20.2309 19.2753 20.1893Z" fill="#A83D0D"/>
<path d="M19.2754 35.3765V37.4569L19.8881 37.665L20.7867 36.1255C20.7459 36.1671 19.9289 35.4181 19.2754 35.3765Z" fill="#D47171"/>
<path d="M21.6853 33.9202L22.2164 34.2531L21.1135 38.0395L19.2754 35.3349C19.2754 35.3765 20.2557 35.1685 21.6853 33.9202Z" fill="#FAF8FA"/>
<path d="M14.8638 38.3724L15.354 37.6234L15.5991 37.2489L14.6596 35.7094L14.3328 35.1269C14.3328 35.1269 10.7383 36.7912 10.6974 36.8328C10.4524 37.1241 9.96218 39.6622 9.67625 41.8675H17.4372L14.8638 38.3724Z" fill="#3B556C"/>
<path d="M23.646 38.3723L21.0726 41.8259H28.8336C28.5068 39.6206 28.0575 37.0825 27.8124 36.7912L24.177 35.0852L22.9108 37.2073L23.646 38.3723Z" fill="#60768E"/>
<path d="M19.2754 41.8259V37.4569L18.6627 37.665C18.6627 37.665 18.2542 39.4958 18.1725 40.4112L18.581 41.8259H19.2754Z" fill="#C94D4D"/>
<path d="M19.9698 41.8259L20.3782 40.4112C20.2965 39.4958 19.8881 37.665 19.8881 37.665L19.2754 37.4569V41.8259H19.9698Z" fill="#D47171"/>
<path d="M15.6399 37.2489L15.354 37.6234L14.8638 38.3723L17.4372 41.8259H18.5809L18.1725 40.4112L16.7837 35.6678L16.3752 34.2115L14.3328 35.1269L14.7004 35.7094L15.6399 37.2489Z" fill="#597D90"/>
<path d="M23.646 38.3723L22.9108 37.2489L24.177 35.1268L22.1755 34.2531L21.8079 35.6678L20.5008 40.0783L19.9698 41.8259H21.0726L23.646 38.3723Z" fill="#3D5B73"/>
<path d="M47.3374 40.7856C47.3374 40.7856 49.053 40.8689 49.1755 40.7856C49.2981 40.7024 49.8291 38.0395 49.8291 37.6234C49.8291 37.2073 49.7065 35.8342 49.1755 35.8342C48.6445 35.8342 44.8049 34.794 44.3147 35.6261C43.7428 36.4167 45.5401 41.8259 47.3374 40.7856Z" fill="#CCCCCC"/>
<path d="M47.3374 31.2572L49.7474 30.009V35.5846C49.7474 35.5846 48.8079 36.708 47.3374 36.708C45.581 36.708 44.9274 35.6678 44.9274 35.6678V30.8411L47.3374 31.2572Z" fill="#FFDBA8"/>
<path d="M44.9274 32.1726C44.9274 32.1726 46.0711 33.2545 49.7474 35.2933V31.6317L44.9274 32.1726Z" fill="#F0BD6D"/>
<path d="M47.3374 35.3765V37.4569L47.9501 37.665L48.8487 36.1255C48.8487 36.1671 47.9909 35.4181 47.3374 35.3765Z" fill="#D47171"/>
<path d="M49.7474 33.9618L50.1967 34.2115L49.0938 38.0811L47.3374 35.3765C47.3374 35.3765 48.3177 35.2101 49.7474 33.9618Z" fill="#DFE1DE"/>
<path d="M51.1362 27.0547C51.1362 27.0547 50.5643 31.5485 50.4418 31.7981C50.3192 32.0062 48.0726 33.2545 47.3374 33.2128V22.2697C47.3374 22.2697 52.0348 20.3141 51.1362 27.0547Z" fill="#FFDBA8"/>
<path d="M43.5386 27.0547C43.5386 27.0547 44.1104 31.5485 44.233 31.7981C44.3555 32.0062 46.6021 33.2544 47.3374 33.2128V22.2697C47.3374 22.2697 42.9259 21.3543 43.5386 27.0547Z" fill="#FFDBA8"/>
<path d="M44.233 29.7593C44.233 29.7593 43.5794 30.009 43.171 28.6775C42.7216 27.1796 43.0484 26.4722 43.4569 26.5138C43.5794 26.5138 43.702 26.5554 43.8245 26.597C44.1104 26.7635 44.1921 27.0963 44.1921 27.0963L44.233 29.7593Z" fill="#FFDBA8"/>
<path d="M50.4826 29.7593C50.4826 29.7593 51.1362 30.009 51.5446 28.6775C51.994 27.1796 51.708 26.4722 51.2587 26.5138C51.0953 26.5138 51.0136 26.5554 50.8911 26.597C50.6051 26.7635 50.5235 27.0963 50.5235 27.0963L50.4826 29.7593Z" fill="#FFDBA8"/>
<path d="M51.5446 23.0187C51.8714 23.9341 51.2179 26.6387 51.2179 26.6387L50.7685 27.346L50.8911 25.8481C50.8911 25.8481 49.9516 23.8093 50.1967 23.0187L50.7685 22.1449C50.7685 22.1033 51.4629 22.7274 51.5446 23.0187Z" fill="#A83D0D"/>
<path d="M43.1301 23.0187C42.8033 23.9341 43.4569 26.6387 43.4569 26.6387L43.9062 27.346L43.7837 25.8481C43.7837 25.8481 44.7231 23.8093 44.4781 23.0187L43.9062 22.1449C43.9062 22.1033 43.2526 22.7274 43.1301 23.0187Z" fill="#A83D0D"/>
<path d="M47.3374 20.1893C48.4811 20.1893 50.0741 20.6886 50.7685 22.1033L50.1967 22.9771C50.1967 22.9771 48.6036 23.8509 47.2965 23.9341C46.4796 23.9757 45.1725 24.0173 44.1513 23.2267L43.9062 22.1033C43.9062 22.1033 44.7231 20.2309 47.3374 20.1893Z" fill="#A83D0D"/>
<path d="M47.3374 35.3765V37.4569L46.7247 37.665L45.826 36.1255C45.8669 36.1671 46.6838 35.4181 47.3374 35.3765Z" fill="#C94D4D"/>
<path d="M44.9274 33.9202L44.3964 34.2531L45.4992 38.0395L47.3374 35.3349C47.3374 35.3765 46.357 35.1685 44.9274 33.9202Z" fill="#FAF8FA"/>
<path d="M51.7489 38.3724L51.2587 37.6234L51.0136 37.2489L51.9531 35.7094L52.2799 35.1269C52.2799 35.1269 55.8744 36.7912 55.9153 36.8328C56.1604 37.1241 56.6505 39.6622 56.9365 41.8675H49.1755L51.7489 38.3724Z" fill="#3B556C"/>
<path d="M42.9259 38.3723L45.4992 41.8259H37.7383C38.0651 39.6206 38.5144 37.0825 38.7595 36.7912L42.3949 35.0852L43.6611 37.2073L42.9259 38.3723Z" fill="#60768E"/>
<path d="M47.3374 41.8259V37.4569L47.9501 37.665C47.9501 37.665 48.3586 39.4958 48.4402 40.4112L48.0318 41.8259H47.3374Z" fill="#D47171"/>
<path d="M46.643 41.8259L46.2345 40.4112C46.3162 39.4958 46.7247 37.665 46.7247 37.665L47.3374 37.4569V41.8259H46.643Z" fill="#C94D4D"/>
<path d="M50.9728 37.2489L51.2587 37.6234L51.7489 38.3723L49.1755 41.8259H48.0318L48.4402 40.4112L49.829 35.6678L50.2375 34.2115L52.2799 35.1269L51.9123 35.7094L50.9728 37.2489Z" fill="#597D90"/>
<path d="M42.9259 38.3723L43.702 37.2489L42.4357 35.1268L44.3964 34.2531L44.8048 35.6678L46.1119 40.0783L46.643 41.8259H45.4992L42.9259 38.3723Z" fill="#3D5B73"/>
<path d="M33.2859 45.8203C33.2859 45.8203 31.0393 45.9452 30.876 45.8203C30.7126 45.6955 30.0182 42.1588 30.0182 41.6178C30.0182 41.0769 30.1815 39.2045 30.876 39.2045C31.5704 39.2045 36.6354 37.8314 37.3298 38.9133C38.0651 40.0783 35.6959 47.235 33.2859 45.8203Z" fill="#CCCCCC"/>
<path d="M33.2859 33.2128L30.0999 31.5485V38.9549C30.0999 38.9549 31.3253 40.4528 33.2859 40.4528C35.6142 40.4528 36.472 39.0797 36.472 39.0797V32.6303L33.2859 33.2128Z" fill="#FFDBA8"/>
<path d="M36.5129 34.4195C36.5129 34.4195 35.0015 35.8758 30.0999 38.5388V33.7122L36.5129 34.4195Z" fill="#F0BD6D"/>
<path d="M33.286 38.6636V41.4098L32.469 41.7011L31.3253 39.7038C31.3253 39.7038 32.4282 38.7468 33.286 38.6636Z" fill="#598997"/>
<path d="M30.0999 36.8328L29.4872 37.1657L30.9577 42.2836L33.2859 38.6636C33.2859 38.6636 31.9788 38.4556 30.0999 36.8328Z" fill="#DFE1DE"/>
<path d="M28.3026 27.6372C28.3026 27.6372 29.0786 33.6289 29.2012 33.9202C29.3646 34.2115 32.3056 35.8758 33.2859 35.7926V21.3127C33.2859 21.3127 27.0771 18.6913 28.3026 27.6372Z" fill="#FFDBA8"/>
<path d="M38.3101 27.6373C38.3101 27.6373 37.534 33.629 37.4115 33.9202C37.2481 34.2115 34.3071 35.8758 33.3268 35.7926V21.3127C33.2859 21.3127 39.1271 20.0645 38.3101 27.6373Z" fill="#FFDBA8"/>
<path d="M37.4523 31.2156C37.4523 31.2156 38.3101 31.5485 38.8411 29.8009C39.4538 27.8037 39.0454 26.8883 38.4735 26.9715C38.2693 26.9715 38.1467 27.0131 38.0242 27.0964C37.6157 27.3044 37.534 27.7205 37.534 27.7205L37.4523 31.2156Z" fill="#FFDBA8"/>
<path d="M29.1604 31.2156C29.1604 31.2156 28.3026 31.5485 27.7716 29.8009C27.1588 27.8037 27.5673 26.8883 28.1392 26.9715C28.3434 26.9715 28.466 27.0131 28.5885 27.0964C28.9561 27.3044 29.0787 27.7205 29.0787 27.7205L29.1604 31.2156Z" fill="#FFDBA8"/>
<path d="M27.7307 22.2697C27.2814 23.4764 28.18 27.0547 28.18 27.0547L28.7519 27.9701L28.6293 25.9729C28.6293 25.9729 29.8548 23.2267 29.528 22.2281L28.7519 21.063C28.7519 21.063 27.8532 21.8952 27.7307 22.2697Z" fill="#A83D0D"/>
<path d="M38.882 22.2697C39.3313 23.4764 38.4327 27.0547 38.4327 27.0547L37.8608 27.9701L37.9833 25.9729C37.9833 25.9729 36.7579 23.2267 37.0847 22.2281L37.8608 21.063C37.8608 21.063 38.7186 21.8952 38.882 22.2697Z" fill="#A83D0D"/>
<path d="M33.2859 18.5665C31.8154 18.5665 29.6505 19.2739 28.711 21.0631L29.4871 22.2281C29.4871 22.2281 31.5703 23.3932 33.3268 23.518C34.4296 23.6012 36.1452 23.6428 37.4932 22.6026L37.8608 21.0631C37.8608 21.0631 36.7988 18.5665 33.2859 18.5665Z" fill="#A83D0D"/>
<path d="M33.2859 38.6636V41.4098L34.1029 41.7011L35.2875 39.6622C35.2875 39.7038 34.1846 38.7468 33.2859 38.6636Z" fill="#4DBBC9"/>
<path d="M36.5129 36.7496L37.2073 37.2073L35.7368 42.242L33.3268 38.6636C33.286 38.6636 34.6339 38.414 36.5129 36.7496Z" fill="#FAF8FA"/>
<path d="M27.4856 42.6581L28.18 41.6594L28.5068 41.1601L27.2814 39.1213L26.8321 38.3723L22.053 40.6192C21.7262 40.9937 21.1135 44.364 20.6642 47.2766H30.9168L27.4856 42.6581Z" fill="#3B556C"/>
<path d="M39.1271 42.6581L35.6959 47.2351H45.9486C45.5401 44.3224 44.9274 40.9521 44.5598 40.5776L39.7806 38.3307L38.1059 41.1602L39.1271 42.6581Z" fill="#60768E"/>
<path d="M33.2859 47.235V41.4098L32.469 41.7011C32.469 41.7011 31.938 44.1144 31.8154 45.321L32.3464 47.1934H33.2859V47.235Z" fill="#598997"/>
<path d="M34.2254 47.2351L34.7564 45.3627C34.6339 44.1144 34.1029 41.7427 34.1029 41.7427L33.2859 41.4514V47.2767H34.2254V47.2351Z" fill="#4DBBC9"/>
<path d="M28.466 41.1601L28.1392 41.6595L27.4856 42.6581L30.8759 47.235H32.3873L31.8563 45.3626L30.0182 39.0381L29.4871 37.1241L26.7912 38.3307L27.2405 39.1213L28.466 41.1601Z" fill="#597D90"/>
<path d="M39.1271 42.6581L38.1059 41.1601L39.8215 38.3307L37.2073 37.2073L36.6354 39.0381L34.9198 44.9049L34.2663 47.235H35.7368L39.1271 42.6581Z" fill="#3D5B73"/>
</g>
<defs>
<clipPath id="clip0_10_5">
<rect width="54" height="30" fill="white" transform="translate(6 18.5665)"/>
</clipPath>
</defs>
</svg>
