<svg width="65" height="67" viewBox="0 0 65 67" fill="none" xmlns="http://www.w3.org/2000/svg">
<ellipse cx="32.5" cy="33.5665" rx="32.5" ry="33" fill="#F0EAD2"/>
<mask id="mask0_5_493" style="mask-type:luminance" maskUnits="userSpaceOnUse" x="20" y="8" width="25" height="24">
<path d="M44.2903 20.0332C44.2903 26.6166 38.9151 31.947 32.2764 31.947C25.6377 31.947 20.2626 26.6166 20.2626 20.0332C20.2626 13.4497 25.6377 8.11935 32.2764 8.11935C38.9151 8.11935 44.2903 13.4497 44.2903 20.0332Z" fill="white"/>
</mask>
<g mask="url(#mask0_5_493)">
<path d="M30.9204 21.2316C30.9204 22.2722 30.0771 23.1084 29.0278 23.1084C27.9785 23.1084 27.1353 22.2722 27.1353 21.2316C27.1353 20.191 28.3345 19.3548 28.372 18.0169C28.372 16.9763 30.9204 20.191 30.9204 21.2316Z" fill="#90765A"/>
<path d="M37.7972 21.2315C37.7972 22.2721 36.954 23.1083 35.9046 23.1083C34.8553 23.1083 34.0121 22.2721 34.0121 21.2315C34.0121 20.1909 36.5979 16.8833 36.5979 17.9239C36.5792 19.6149 37.7972 20.1909 37.7972 21.2315Z" fill="#90765A"/>
<path d="M28.8966 19.6893C28.8966 19.6893 28.297 19.7264 28.3906 20.0423C28.4843 20.3582 28.9715 21.5475 29.2151 21.5475C29.4587 21.5475 29.6648 21.3802 29.6648 21.3802L28.8966 19.6893Z" fill="#F5C7B5"/>
<path d="M36.0171 19.6893C36.0171 19.6893 36.6167 19.7264 36.523 20.0423C36.4293 20.3582 35.9421 21.5475 35.6985 21.5475C35.4549 21.5475 35.2488 21.3802 35.2488 21.3802L36.0171 19.6893Z" fill="#F5C7B5"/>
<path d="M33.45 23.3499H31.4637V26.4346H33.45V23.3499Z" fill="#E3B8A8"/>
<path d="M35.9983 18.7044C35.9983 20.3396 35.0239 22.7739 34.7241 23.1455C34.1245 23.9259 33.3 24.3719 32.4568 24.3719C31.6323 24.3719 30.8079 23.9445 30.227 23.1827C29.7773 22.588 28.8966 20.321 28.8966 18.6858C28.8966 15.3596 30.3394 13.9288 32.4381 13.9288C34.5555 13.9474 35.9983 15.4525 35.9983 18.7044Z" fill="#F5C7B5"/>
<path d="M27.4163 27.0478L30.5081 26.0072L31.4637 25.6913H32.4569V37.5653H26.367L25.58 29.8908C25.4488 28.7016 26.2733 27.438 27.4163 27.0478Z" fill="#6589CC"/>
<path d="M37.4974 27.0478L33.45 25.6913H32.4568V37.5653H38.5467L39.3337 29.8908C39.4462 28.7016 38.6217 27.438 37.4974 27.0478Z" fill="#5B7BB7"/>
<path d="M32.157 14.1332C32.157 14.1332 30.0396 13.4085 29.009 14.7278C27.9784 16.0472 27.866 18.2398 29.1027 20.1352H29.2339C29.2339 20.1352 28.8029 17.7381 30.0209 17.2178C31.2388 16.7161 31.8385 16.9019 31.8385 16.9019L32.157 14.1332Z" fill="#90765A"/>
<path d="M32.7379 14.1332C32.7379 14.1332 34.8554 13.4085 35.8859 14.7278C36.9165 16.0472 37.1227 18.3328 35.8859 20.2281H35.7548C35.7548 20.2281 36.0921 17.7381 34.8741 17.2178C33.6561 16.7161 33.0565 16.9019 33.0565 16.9019L32.7379 14.1332Z" fill="#90765A"/>
<path d="M29.8897 15.9729C29.8897 15.9729 30.7704 19.8379 35.8672 19.299C35.8672 19.299 37.3475 15.9914 35.3425 14.2633C33.3376 12.5352 29.9272 13.5014 29.8897 15.9729Z" fill="#90765A"/>
<path d="M31.4637 25.6913L32.4569 28.6272L33.45 25.6913L32.4569 25.0223L31.4637 25.6913Z" fill="#E3B8A8"/>
<path d="M31.4637 25.6913L29.9834 26.193L31.1077 27.0292L30.6018 27.3451L32.4569 29.7422V28.6273L31.4637 25.6913Z" fill="#4C6799"/>
<path d="M33.45 25.6913L34.9303 26.193L33.806 27.0292L34.3119 27.3451L32.4568 29.7422V28.6273L33.45 25.6913Z" fill="#4C6799"/>
</g>
<path d="M20.2627 49.5917C20.0966 49.4858 19.9305 49.2211 19.9305 49.0093V48.7446H18.1589V49.0093C18.1589 49.1681 17.9928 49.4328 17.8267 49.5917C17.7713 49.5917 16.7748 50.227 16.7748 50.9682V51.18H21.3146V51.0212C21.3146 50.227 20.318 49.5917 20.2627 49.5917Z" fill="#F2BC81"/>
<path d="M20.2626 49.5917C20.0965 49.4858 19.9304 49.2211 19.9304 49.0093V48.7446H19.0446V51.18H21.3145V51.0212C21.3145 50.227 20.318 49.5917 20.2626 49.5917Z" fill="#E2A971"/>
<path d="M16.9409 49.6975L16.5533 51.18H21.4806L21.0931 49.6975V49.6446C20.3734 49.6446 19.3768 49.274 19.3768 49.274L18.9893 49.1681L18.6018 49.274C18.6571 49.274 17.6606 49.6446 16.9409 49.6975Z" fill="#172830"/>
<path d="M19.2107 51.18L19.9305 49.4329H18.1588L18.8232 51.18H19.2107Z" fill="#E4E7EA"/>
<path d="M19.9305 49.0093V48.7446H18.1588V49.0093C18.1588 49.0622 18.1588 49.1681 18.1035 49.274C18.1035 49.327 18.1588 49.3799 18.1588 49.4328C18.2142 49.4858 18.4357 49.8564 19.0447 49.9623C19.6537 49.9093 19.8751 49.5387 19.9305 49.4328C19.9305 49.3799 19.9858 49.274 19.9858 49.274C19.9305 49.1681 19.9305 49.1152 19.9305 49.0093Z" fill="#F2BC81"/>
<path d="M18.8786 50.5446L18.7125 50.227L18.8786 49.9622H19.1554L19.3215 50.227L19.1554 50.5446H18.8786Z" fill="#FF7F00"/>
<path d="M18.1588 49.4329C18.1588 49.4329 18.4357 49.8564 19.0447 49.9623C19.0447 49.9623 18.7125 50.227 18.3803 50.3329L18.1588 49.4329Z" fill="white"/>
<path d="M19.9304 49.4329C19.9304 49.4329 19.6536 49.8564 19.0446 49.9623C19.0446 49.9623 19.3768 50.227 19.709 50.3329L19.9304 49.4329Z" fill="white"/>
<path d="M19.4875 51.18L20.5394 50.0682L20.0411 49.9094L20.5948 49.8564L20.4287 49.4858L19.9858 49.274C19.9304 49.4858 19.4875 50.5447 19.2107 51.18H19.4875Z" fill="#22353D"/>
<path d="M17.5499 50.0682L18.6018 51.18H18.8232C18.5464 50.5447 18.1589 49.5388 18.1035 49.274L17.6606 49.4858L17.4945 49.8564L18.0481 49.9094L17.5499 50.0682Z" fill="#22353D"/>
<path d="M19.2108 51.18L19.1554 50.5447H18.8786L18.8232 51.18H19.2108Z" fill="#FF7F00"/>
<path d="M19.0447 49.274C18.5464 49.274 18.0481 48.9034 17.7713 48.321C17.6052 48.2681 17.3838 48.0563 17.3838 47.8975C17.3838 47.7916 17.3838 47.7386 17.3838 47.6328C17.4391 47.5798 17.4945 47.5269 17.5498 47.4739H17.6052C17.6052 47.4739 17.6052 47.4739 17.6052 47.421C17.6052 46.2033 18.491 46.0444 19.0447 46.0444C19.5983 46.0444 20.4841 46.2033 20.4841 47.421C20.4841 47.4739 20.4841 47.4739 20.4841 47.5269H20.5395C20.5948 47.5269 20.7056 47.5798 20.7056 47.6857C20.7609 47.7386 20.7609 47.8445 20.7056 47.9504C20.6502 48.1092 20.4287 48.2681 20.2626 48.321C20.0412 48.9034 19.5429 49.274 19.0447 49.274Z" fill="#FFD098"/>
<path d="M19.0445 45.7268C18.3801 45.7268 17.7711 46.2033 17.6604 46.7857C17.9372 46.9445 18.3248 47.0504 18.7677 47.0504C19.432 47.0504 20.041 46.7857 20.3178 46.468C20.041 46.0444 19.5981 45.7268 19.0445 45.7268Z" fill="#172830"/>
<path d="M17.9374 47.1562V46.2562C17.7159 46.468 17.6052 46.7327 17.6052 47.0504V47.5798C17.6606 47.3151 17.7713 47.1562 17.9374 47.1562Z" fill="#172830"/>
<path d="M20.4287 47.5798V47.0504C20.4287 46.7327 20.318 46.4151 20.0965 46.2033V47.1033C20.318 47.1563 20.4287 47.3151 20.4287 47.5798Z" fill="#172830"/>
<path d="M46.8924 49.5917C46.837 49.5387 46.7263 49.4858 46.6709 49.3799H44.6225C44.5671 49.4329 44.5118 49.5387 44.4011 49.5917C44.3457 49.5917 43.3492 50.227 43.3492 50.9682V51.1271H47.8889V50.9682C47.9443 50.227 46.9478 49.5917 46.8924 49.5917Z" fill="#F0E6DD"/>
<path d="M44.5671 49.4329C44.5671 49.4858 44.5671 49.4858 44.5671 49.4329L45.1761 50.0682C45.1761 50.0682 45.1761 50.0682 45.2315 50.0682H45.2868L45.619 49.6446V49.5917L45.2868 49.3799H44.6778C44.6225 49.3799 44.5671 49.4329 44.5671 49.4329Z" fill="#D8CEC5"/>
<path d="M46.0619 50.1211C46.1173 50.1211 46.1173 50.1211 46.0619 50.1211C46.1173 50.1211 46.1173 50.1211 46.1726 50.1211L46.7263 49.4858C46.7263 49.4858 46.7263 49.4858 46.7263 49.4329L46.6709 49.3799H46.0619L45.7851 49.5917C45.7851 49.5917 45.7297 49.6446 45.7851 49.6446L46.0619 50.1211Z" fill="#D8CEC5"/>
<path d="M46.5602 49.0093V48.7446H44.7886V49.0093V49.0623L45.5637 49.5917V49.8035H45.7297V49.5917L46.5602 49.0093Z" fill="#F2BC81"/>
<path d="M45.8958 49.6976C45.9512 49.7506 45.9512 49.7506 45.9512 49.7506L45.8405 50.0682L45.7851 50.1212H45.5083C45.5083 50.1212 45.4529 50.1212 45.4529 50.0682L45.3422 49.7506V49.6976H45.3976H45.8958Z" fill="#523C2F"/>
<path d="M45.9512 51.1271H45.3422H45.2868V51.0741L45.4529 50.227C45.4529 50.1741 45.5083 50.1741 45.5083 50.1741H45.7851C45.8404 50.1741 45.8404 50.1741 45.8404 50.227L46.0065 51.0741C46.0065 51.0741 46.0065 51.1271 45.9512 51.1271Z" fill="#523C2F"/>
<path d="M45.2315 50.0682C45.1761 50.0682 45.1761 50.0682 45.2315 50.0682L44.6225 49.4329V49.3799L44.7332 49.0623C44.7332 49.0623 44.7332 49.0093 44.7886 49.0093H44.844L45.619 49.5388C45.619 49.5388 45.6744 49.5917 45.619 49.5917L45.2315 50.0682Z" fill="#F0E6DD"/>
<path d="M46.1173 50.0682C46.062 50.0682 46.062 50.0682 46.1173 50.0682L45.7298 49.5917V49.5388L46.5049 49.0093H46.5602C46.5602 49.0093 46.6156 49.0093 46.6156 49.0623L46.7263 49.3799V49.4329L46.1173 50.0682Z" fill="#F0E6DD"/>
<path d="M45.6744 49.2211C45.1761 49.2211 44.6779 48.8505 44.401 48.2681C44.2349 48.2151 44.0135 48.0034 43.9581 47.8975C43.9581 47.6857 44.0135 47.5269 44.1796 47.4739H44.2349C44.2349 47.421 44.2349 47.421 44.2349 47.368C44.2349 46.1503 45.1208 45.9915 45.6744 45.9915C46.228 45.9915 47.1138 46.1503 47.1138 47.368C47.1138 47.421 47.1138 47.421 47.1138 47.4739H47.1692C47.3353 47.5269 47.446 47.6857 47.3907 47.8445C47.3353 48.0034 47.1138 48.1622 46.9477 48.2151C46.6709 48.8505 46.1727 49.2211 45.6744 49.2211Z" fill="#FFD098"/>
<path d="M44.2903 47.4739C44.235 47.4739 44.235 47.421 44.235 47.421C44.235 46.5209 44.7332 46.2033 45.1761 46.0974H45.2315H45.2869H45.3422H45.3976H45.4529C45.4529 46.0974 45.4529 46.0974 45.5083 46.0974C45.619 46.0974 45.6744 46.0974 45.7851 46.0974C45.7851 46.0974 45.7851 46.0974 45.8405 46.0974H45.8959H45.9512H46.0066H46.0619H46.1173C46.2834 46.1503 46.3941 46.2033 46.5048 46.2562C46.8924 46.468 47.0585 46.8915 47.0585 47.421C47.0585 47.4739 47.0585 47.4739 47.0031 47.4739C47.0031 47.4739 46.9478 47.4739 46.9478 47.421C46.8924 47.1033 46.6709 46.8386 46.3941 46.6268C46.228 46.8915 45.9512 47.0504 45.619 47.0504C45.2869 47.0504 45.01 46.8915 44.844 46.6268C44.5671 46.8386 44.401 47.1033 44.2903 47.421C44.3457 47.4739 44.3457 47.4739 44.2903 47.4739Z" fill="#030D14"/>
<path d="M47.0585 50.5447H46.3387V50.8624H47.0585V50.5447Z" fill="white"/>
<path d="M33.5498 49.8564C33.4391 49.8035 33.3284 49.6976 33.273 49.6446C33.1623 49.5388 33.0515 49.274 33.0515 49.1152H32.055C32.055 49.274 31.9443 49.5917 31.8336 49.6446C31.7782 49.6976 31.6675 49.8035 31.5567 49.8564C31.1692 50.1211 30.7263 50.4388 30.7263 50.9682V51.18H34.4356V51.0212C34.3803 50.4388 33.9374 50.1211 33.5498 49.8564Z" fill="#F2BC81"/>
<path d="M32.5533 49.327C32.1104 49.327 31.7228 48.9564 31.5014 48.374C31.3906 48.321 31.1692 48.1622 31.1692 48.0034C31.1138 47.8445 31.2245 47.6857 31.3353 47.6328C31.3353 47.6328 31.3353 47.6328 31.3906 47.6328C31.3906 47.5798 31.3906 47.5798 31.3906 47.5269C31.3906 46.3621 32.1104 46.1503 32.5533 46.1503C32.9962 46.1503 33.7159 46.3092 33.7159 47.5269C33.7159 47.5798 33.7159 47.5798 33.7159 47.6328C33.7159 47.6328 33.7159 47.6328 33.7712 47.6328C33.882 47.6857 33.9927 47.8445 33.9373 48.0034C33.882 48.1622 33.7159 48.321 33.6052 48.374C33.3837 48.9564 32.9962 49.327 32.5533 49.327Z" fill="#FFD098"/>
<path d="M33.4945 46.3621C33.3837 46.2563 33.273 46.1504 33.0515 46.1504C33.0515 45.9386 32.8301 45.7798 32.5533 45.7798C32.2765 45.7798 32.055 45.9386 32.055 46.1504C31.8336 46.2033 31.6675 46.3092 31.5567 46.468C31.1138 47.1034 31.5567 48.374 31.5567 48.4799V48.374C31.5567 48.2681 31.5567 48.2152 31.5567 48.1622C31.5567 48.0563 31.6121 47.8975 31.7228 47.7387C31.8336 47.5798 32.055 47.3681 32.4979 47.3681H32.5533C32.9408 47.3681 33.1623 47.2622 33.3284 47.2092C33.3284 47.3151 33.3837 47.421 33.3837 47.5798C33.4391 47.7916 33.4945 47.9505 33.4945 48.0034C33.4945 48.0034 33.4945 48.0034 33.4945 48.0563L33.5498 48.3211L33.6052 48.1093L33.6605 48.1622C33.6605 48.1622 33.6052 47.9505 33.6605 47.8975C33.7713 47.7916 33.7713 47.7387 33.7713 47.6857C33.8266 46.9975 33.7159 46.6269 33.4945 46.3621Z" fill="#ECE3BA"/>
<path d="M34.3803 51.18H30.671V51.0212C30.671 50.4917 31.1692 50.1211 31.446 49.9094C31.6675 49.9623 31.8336 50.1211 31.9997 50.3329C32.1658 50.4917 32.2765 50.6506 32.4979 50.6506C32.664 50.6506 32.8301 50.4917 32.9962 50.3329C33.1623 50.1741 33.3284 49.9623 33.5498 49.9094C33.882 50.1211 34.3249 50.4388 34.3249 51.0212V51.18H34.3803Z" fill="#4C6B7F"/>
<path d="M32.055 48.374C31.8336 48.374 31.6675 48.2151 31.6675 48.0034C31.6675 47.7916 31.7782 47.7386 32.055 47.7386C32.3318 47.7386 32.4426 47.8445 32.4426 48.0034C32.4979 48.1622 32.2765 48.374 32.055 48.374ZM32.055 47.7916C31.7782 47.7916 31.7782 47.8975 31.7782 47.9504C31.7782 48.1093 31.8889 48.2151 32.055 48.2151C32.2211 48.2151 32.3318 48.1093 32.3318 47.9504C32.3872 47.8975 32.3318 47.7916 32.055 47.7916Z" fill="#B52408"/>
<path d="M33.0516 48.374C32.8301 48.374 32.664 48.2151 32.664 48.0034C32.664 47.7916 32.7748 47.7386 33.0516 47.7386C33.3284 47.7386 33.4391 47.8445 33.4391 48.0034C33.4391 48.1622 33.273 48.374 33.0516 48.374ZM33.0516 47.7916C32.7748 47.7916 32.7748 47.8975 32.7748 47.9504C32.7748 48.1093 32.8855 48.2151 33.0516 48.2151C33.2177 48.2151 33.3284 48.1093 33.3284 47.9504C33.3284 47.8975 33.273 47.7916 33.0516 47.7916Z" fill="#B52408"/>
<path d="M32.5529 48.0031H32.6081H32.6632C32.6632 47.9503 32.6081 47.8976 32.5529 47.8976C32.4977 47.8976 32.4425 47.9503 32.4425 48.0031H32.4977H32.5529Z" fill="#B52408"/>
<path d="M33.6052 47.7916L33.3837 48.0034V47.9504L33.6052 47.6857V47.7916Z" fill="#B52408"/>
<path d="M31.446 47.7916L31.7228 48.0034V47.9504L31.446 47.6857V47.7916Z" fill="#B52408"/>
<path d="M31.501 48.532C31.501 48.5847 31.4459 48.5847 31.4459 48.5847C31.3907 48.5847 31.3907 48.532 31.3907 48.532C31.3907 48.4792 31.4459 48.3209 31.4459 48.3209C31.4459 48.3209 31.501 48.4792 31.501 48.532Z" fill="#B52408"/>
<path d="M31.4451 48.2681C31.4451 48.3201 31.4451 48.3201 31.4451 48.2681C31.3907 48.3201 31.3907 48.2681 31.3907 48.2681C31.3907 48.2681 31.3907 48.2681 31.4451 48.2681Z" fill="#B52408"/>
<path d="M33.7155 48.532C33.7155 48.5847 33.6603 48.5847 33.6603 48.5847C33.6052 48.5847 33.6052 48.532 33.6052 48.532C33.6052 48.4792 33.6603 48.3209 33.6603 48.3209C33.6603 48.3209 33.7155 48.4792 33.7155 48.532Z" fill="#B52408"/>
<path d="M33.6595 48.2681C33.6595 48.3201 33.6595 48.3201 33.6595 48.2681C33.6052 48.3201 33.6052 48.2681 33.6052 48.2681C33.6052 48.2681 33.6052 48.2681 33.6595 48.2681Z" fill="#B52408"/>
<path d="M23.6952 52.2389H14.2834C13.6744 52.2389 13.1761 51.7095 13.1761 51.1271V45.1444C13.1761 44.562 13.6744 44.0326 14.3388 44.0326H14.6156L14.7263 43.8738C14.9478 43.5032 15.5014 43.2384 15.9443 43.2384H17.9374C18.4357 43.2384 18.9339 43.5032 19.2107 43.8738L19.3215 44.0326H23.6952C24.3042 44.0326 24.8024 44.5091 24.8024 45.1444V51.1271C24.8578 51.7095 24.3595 52.2389 23.6952 52.2389ZM14.5602 50.9153H23.4737V45.3562H18.6571L18.1035 44.615C18.1035 44.615 17.9928 44.562 17.9374 44.562H15.9443L15.8336 44.615L15.28 45.3562H14.5602V50.9153Z" fill="#FDC00F"/>
<path d="M37.4806 52.2389H28.0689C27.4599 52.2389 26.9616 51.7624 26.9616 51.18V45.1444C26.9616 44.562 27.4599 44.0326 28.0689 44.0326H28.3457L28.4564 43.8738C28.7332 43.5032 29.2315 43.2384 29.7298 43.2384H31.7228C32.2211 43.2384 32.7194 43.5032 32.9962 43.8738L33.1069 44.0326H37.4253C38.0343 44.0326 38.5325 44.5091 38.5325 45.1444V51.1271C38.5879 51.7095 38.0896 52.2389 37.4806 52.2389ZM28.2903 50.9153H37.2038V45.3562H32.3872L31.8336 44.615C31.8336 44.615 31.7228 44.562 31.6675 44.562H29.6744C29.619 44.562 29.5637 44.615 29.5083 44.615L28.9547 45.3562H28.235V50.9153H28.2903Z" fill="#F99B1D"/>
<path d="M50.7124 52.2389H41.3007C40.6917 52.2389 40.1934 51.7624 40.1934 51.18V45.1444C40.1934 44.562 40.6917 44.0326 41.3007 44.0326H41.5775L41.6882 43.8738C41.965 43.5032 42.5186 43.2384 42.9616 43.2384H44.9546C45.4529 43.2384 45.9512 43.5032 46.228 43.8738L46.3941 44.0326H50.7124C51.3214 44.0326 51.8197 44.5091 51.8197 45.1444V51.1271C51.875 51.7095 51.3768 52.2389 50.7124 52.2389ZM41.5775 50.9153H50.491V45.3562H45.6744L45.1207 44.615C45.1207 44.615 45.01 44.562 44.9546 44.562H42.9616C42.9062 44.562 42.8508 44.615 42.7955 44.615L42.2418 45.3562H41.5221V50.9153H41.5775Z" fill="#CC330A"/>
<path d="M33.026 41.0278L32.0848 41.0278L32.0848 36.9511L19.2959 36.9511L19.2959 41.0278L18.4101 41.0278L18.4101 36.104L33.026 36.104L33.026 41.0278Z" fill="#124C60"/>
<path d="M46.6454 41.0278L45.7595 41.0278L45.7595 36.9511L32.9706 36.9511L32.9706 41.0278L32.0295 41.0278L32.0295 36.104L46.6454 36.104L46.6454 41.0278Z" fill="#124C60"/>
<path d="M32.0294 36.5804L32.9706 36.5804L32.9706 34.4097L32.0294 34.4097L32.0294 36.5804Z" fill="#124C60"/>
</svg>
