<svg width="68" height="68" viewBox="0 0 68 68" fill="none" xmlns="http://www.w3.org/2000/svg">
<circle cx="34.1496" cy="34.0072" r="33.48" fill="#F6F4D2"/>
<path d="M34.0422 25.7417C34.0422 25.7417 32.0578 21.496 32.5226 15.4005" stroke="#6764EE" stroke-width="3" stroke-miterlimit="10" stroke-linecap="round"/>
<path d="M49.7385 27.4329H18.5783C17.6129 27.4329 16.8263 28.2081 16.8263 29.1594V47.7984C16.8263 48.7497 17.6129 49.5248 18.5783 49.5248H49.7206C50.686 49.5248 51.4726 48.7497 51.4726 47.7984V29.1594C51.4905 28.2081 50.7039 27.4329 49.7385 27.4329ZM37.3853 30.0403H31.0924C30.7349 30.0403 30.4488 29.7584 30.4488 29.406C30.4488 29.0537 30.7349 28.7718 31.0924 28.7718H37.3853C37.7428 28.7718 38.0288 29.0537 38.0288 29.406C38.0288 29.7584 37.7428 30.0403 37.3853 30.0403Z" fill="white" stroke="#6764EE" stroke-width="3" stroke-miterlimit="10"/>
<path d="M30.4131 32.4186H20.223C19.937 32.4186 19.7046 32.6476 19.7046 32.9295V46.1776C19.7046 46.4594 19.937 46.6885 20.223 46.6885H30.4131C30.6991 46.6885 30.9315 46.4594 30.9315 46.1776V32.9295C30.9315 32.6476 30.6991 32.4186 30.4131 32.4186ZM30.3416 43.3764C30.3416 43.3588 30.3237 43.3412 30.3237 43.3236C30.1271 42.7599 29.7338 42.6541 29.7338 42.6541L27.3024 41.5795L26.6946 41.2095C26.6946 41.0686 26.6767 40.9277 26.6767 40.7867C26.784 40.6634 26.8734 40.5225 26.9449 40.3815C27.07 40.1349 27.1415 39.8354 27.2131 39.5183C27.2846 39.5007 27.3561 39.4654 27.4276 39.395C27.5885 39.254 27.7851 38.5846 27.8209 38.2851C27.8388 38.1089 27.6421 37.8975 27.5527 37.8799C27.6242 37.4219 27.6957 36.6995 27.4633 36.171C27.1058 35.3606 26.5158 35.0611 26.1583 35.2726C26.0868 35.2021 25.9438 35.1492 25.7292 35.0964C25.032 34.9202 24.5136 34.9202 23.8521 35.4663C23.3337 35.9068 23.1013 36.312 23.137 37.0871C23.1549 37.4219 23.1728 37.6861 23.1906 37.8623C23.0834 37.8623 22.8689 38.0913 22.9046 38.2675C22.9404 38.567 23.1549 39.2364 23.2979 39.3774C23.3694 39.4478 23.4409 39.4831 23.5124 39.5007C23.5661 39.8002 23.6376 40.082 23.7091 40.2582C23.7806 40.4168 23.87 40.5577 23.9594 40.681C23.9594 40.8572 23.9594 41.0334 23.9594 41.2095L23.3694 41.5795L20.9202 42.6894C20.9202 42.6894 20.4375 42.8656 20.3124 43.3941C20.3124 43.4117 20.2945 43.4469 20.2766 43.4998V32.9999H30.3237V43.3764H30.3416Z" fill="#DBE2E8"/>
<path d="M49.0055 35.114H32.9337V35.6601H49.0055V35.114Z" fill="#DBE2E8"/>
<path d="M49.0055 38.514H32.9337V39.0601H49.0055V38.514Z" fill="#DBE2E8"/>
<path d="M49.0055 41.9318H32.9337V42.478H49.0055V41.9318Z" fill="#DBE2E8"/>
<path d="M49.0055 45.332H32.9337V45.8782H49.0055V45.332Z" fill="#DBE2E8"/>
<path d="M34.1495 25.8827C34.1495 25.8827 36.4378 20.8442 33.8992 15.2067C33.3271 13.9382 32.6656 14.6077 32.6656 14.6077" stroke="#6764EE" stroke-width="3" stroke-miterlimit="10" stroke-linecap="round"/>
</svg>
