<svg width="68" height="68" viewBox="0 0 68 68" fill="none" xmlns="http://www.w3.org/2000/svg">
<path d="M34.3988 67.0363C52.8884 67.0363 67.8768 52.0475 67.8764 33.5579C67.876 15.0683 52.8869 0.0794678 34.3972 0.0794678C15.9076 0.0794678 0.9192 15.0683 0.919627 33.5579C0.920054 52.0475 15.9092 67.0363 34.3988 67.0363Z" fill="#C3EC8E" fill-opacity="0.54"/>
<path d="M46.6707 22.1668L46.0352 22.3189C45.9732 22.3341 45.9112 22.3037 45.8957 22.2429L45.8802 22.1972C45.8647 22.1364 45.8957 22.0755 45.9577 22.0603L46.5932 21.9082C46.6552 21.893 46.7172 21.9234 46.7327 21.9843L46.7482 22.0147C46.7792 22.0908 46.7327 22.1516 46.6707 22.1668Z" fill="#263238"/>
<path d="M39.8971 23.3532C39.8971 23.3532 43.2917 25.513 44.3612 25.513C45.4307 25.513 46.5932 24.9503 47.1357 24.4331C47.6782 23.916 48.4997 22.8969 48.4997 22.8969L46.9032 22.1364C46.9032 22.1364 45.9112 22.3341 45.3377 22.5014C44.7642 22.6535 43.7412 22.6535 43.7412 22.6535L41.8346 21.0717L39.8971 23.3532Z" fill="#E49384"/>
<path d="M46.1437 22.2885C46.1437 22.2885 46.4847 22.9577 47.1202 23.2163C47.7092 23.4597 48.1122 23.3684 48.1122 23.3684L48.5772 23.0034C48.5772 23.0034 46.8257 22.8056 46.5777 22.182L46.1437 22.2885Z" fill="#455A64"/>
<path d="M43.5862 24.2658C43.5552 24.2506 43.6947 23.916 43.7257 23.4597C43.7722 23.0186 43.7102 22.6535 43.7257 22.6383C43.7412 22.6383 43.8497 23.0034 43.8032 23.4597C43.7722 23.9312 43.6017 24.2658 43.5862 24.2658Z" fill="#A86B62"/>
<path d="M46.7482 22.6535C46.7017 22.6231 46.3452 22.3037 46.4227 22.0451C46.5002 21.7866 46.6862 21.6345 46.6862 21.6345C46.6862 21.6345 46.3297 21.0108 46.4072 20.7979C46.4847 20.585 46.5932 20.3872 46.9187 20.4785C46.9187 20.4785 46.9807 20.007 47.2907 20.007C47.6007 20.007 47.7092 20.1286 47.7092 20.1286C47.7092 20.1286 47.6937 19.8549 47.9882 19.9157C48.2827 19.9765 48.2827 19.9765 48.2827 19.9765C48.2827 19.9765 48.4222 19.8549 48.6547 19.9005C48.8872 19.9461 49.3677 20.2503 49.4297 20.4481C49.4763 20.6458 49.4763 21.3911 49.4763 21.3911C49.4763 21.3911 49.5383 21.9691 49.3522 22.2581C49.1662 22.5471 48.4997 23.0186 48.4997 23.0186C48.4997 23.0186 47.3992 23.2163 46.7482 22.6535Z" fill="#E49384"/>
<path d="M46.8102 21.7257C46.8102 21.7257 46.8412 21.7257 46.8877 21.7257C46.9342 21.7257 46.9962 21.7105 47.0737 21.6649C47.1512 21.6345 47.2442 21.5584 47.3837 21.5888C47.5232 21.6193 47.6317 21.7409 47.6472 21.893C47.6627 22.0451 47.6007 22.182 47.5077 22.2733C47.4302 22.3646 47.3217 22.4254 47.2442 22.4558C47.0737 22.5319 46.9652 22.5471 46.9652 22.5319C46.9652 22.5167 47.0582 22.4862 47.2132 22.395C47.2907 22.3493 47.3837 22.3037 47.4457 22.2125C47.5232 22.1364 47.5697 22.0147 47.5542 21.893C47.5387 21.7714 47.4457 21.6801 47.3527 21.6497C47.2597 21.6345 47.1512 21.6801 47.0737 21.7105C46.9962 21.7409 46.9032 21.7561 46.8567 21.7409C46.8257 21.7561 46.8102 21.7409 46.8102 21.7257Z" fill="#A86B62"/>
<path d="M47.3062 20.7067C47.3062 20.7067 47.3837 20.7523 47.5077 20.8588C47.6162 20.9652 47.7712 21.1173 47.8952 21.3303C47.9572 21.4368 47.9882 21.5432 47.9882 21.6649C47.9882 21.7714 47.9417 21.8778 47.8797 21.9235C47.8177 21.9843 47.7402 21.9843 47.6937 21.9843C47.6472 21.9843 47.6317 21.9539 47.6317 21.9539C47.6317 21.9539 47.6627 21.9539 47.6937 21.9539C47.7402 21.9539 47.7867 21.9387 47.8332 21.8778C47.8797 21.8322 47.9107 21.741 47.9107 21.6497C47.9107 21.5584 47.8642 21.452 47.8177 21.3607C47.7092 21.163 47.5697 21.0109 47.4612 20.8892C47.3682 20.7827 47.3062 20.7067 47.3062 20.7067Z" fill="#A86B62"/>
<path d="M47.9417 20.3872C47.9417 20.3872 48.0502 20.448 48.1742 20.5697C48.2982 20.6914 48.4842 20.9196 48.5152 21.2086C48.5307 21.3607 48.5152 21.4976 48.4532 21.6192C48.3912 21.7409 48.2982 21.817 48.1897 21.8474C48.0967 21.8778 48.0037 21.8474 47.9572 21.817C47.9107 21.7865 47.8952 21.7561 47.8952 21.7561C47.8952 21.7561 47.9262 21.7713 47.9727 21.7865C48.0192 21.8018 48.0967 21.817 48.1742 21.7865C48.2517 21.7561 48.3292 21.6801 48.3757 21.5888C48.4222 21.4823 48.4377 21.3607 48.4222 21.2238C48.3912 20.95 48.2362 20.7523 48.1122 20.6154C48.0192 20.4785 47.9417 20.4024 47.9417 20.3872Z" fill="#A86B62"/>
<path d="M48.5152 21.528C48.5152 21.5128 48.6237 21.5736 48.7477 21.4976C48.8717 21.4215 48.8717 21.1934 48.8872 20.9652C48.9027 20.7371 48.7787 20.5545 48.6857 20.4177C48.5927 20.296 48.5307 20.2199 48.5462 20.2047C48.5462 20.2047 48.6237 20.2656 48.7322 20.372C48.7787 20.4329 48.8407 20.5089 48.8872 20.6002C48.9337 20.6914 48.9647 20.8131 48.9647 20.95C48.9647 21.0717 48.9492 21.1782 48.9337 21.2846C48.9182 21.3911 48.8562 21.4976 48.7787 21.528C48.7012 21.5736 48.6237 21.5584 48.5772 21.5432C48.5307 21.5584 48.5152 21.528 48.5152 21.528Z" fill="#A86B62"/>
<path d="M49.4143 20.9044C49.4298 20.9044 49.4298 20.9652 49.4298 21.0413C49.4143 21.1173 49.3988 21.2542 49.2903 21.3607C49.2283 21.4063 49.1663 21.4367 49.1043 21.4367C49.0422 21.4367 48.9802 21.4063 48.9492 21.3759C48.8717 21.2998 48.8872 21.239 48.9027 21.239C48.9182 21.239 48.9182 21.2846 48.9802 21.3303C49.0422 21.3759 49.1507 21.3759 49.2438 21.2998C49.3368 21.2238 49.3678 21.1173 49.3833 21.0413C49.3833 20.95 49.3988 20.8892 49.4143 20.9044Z" fill="#A86B62"/>
<path d="M48.4997 22.684C48.4687 22.684 48.4687 22.4254 48.2827 22.1972C48.0967 21.9691 47.8332 21.9082 47.8487 21.8778C47.8487 21.8626 47.9107 21.8626 48.0192 21.9082C48.1122 21.9387 48.2517 22.0147 48.3447 22.1516C48.4532 22.2733 48.4997 22.4102 48.5152 22.5166C48.5152 22.6231 48.5152 22.684 48.4997 22.684Z" fill="#A86B62"/>
<path d="M48.3292 23.0642C48.3292 23.0794 48.2052 23.0794 48.0037 23.0794C47.8022 23.0794 47.5232 23.0794 47.2287 22.9577C46.9497 22.8361 46.7017 22.684 46.5777 22.5319C46.4382 22.3798 46.4072 22.2581 46.4227 22.2429C46.4382 22.2429 46.4847 22.3493 46.6242 22.4862C46.7637 22.6231 46.9962 22.7752 47.2597 22.8817C47.5387 22.9882 47.8177 23.0034 48.0037 23.0186C48.2052 23.0338 48.3292 23.049 48.3292 23.0642Z" fill="#A86B62"/>
<path d="M27.0164 53.9713L25.4509 57.1046C25.4509 57.1046 28.2874 59.4774 28.0549 60.0858L21.6378 57.5761L23.8544 52.5872L27.0164 53.9713Z" fill="#455A64"/>
<g opacity="0.6">
<path d="M23.6219 55.9942C23.4824 55.979 23.3429 56.0703 23.3119 56.2072C23.2809 56.344 23.3894 56.4809 23.5289 56.5114C23.6684 56.5266 23.8389 56.4201 23.8544 56.2832C23.8699 56.1463 23.7304 55.979 23.6064 55.9942" fill="white"/>
</g>
<g opacity="0.6">
<path d="M21.6378 57.5913L21.8548 57.0894L27.9774 59.7207C27.9774 59.7207 28.1479 59.888 28.0704 60.1618L21.6378 57.5913Z" fill="white"/>
</g>
<path d="M25.5749 57.1198C25.5594 57.1502 25.4044 57.0894 25.2029 57.135C25.0014 57.1654 24.8619 57.2567 24.8464 57.2415C24.8154 57.2263 24.9549 57.059 25.1874 57.0286C25.4199 56.9829 25.5904 57.1046 25.5749 57.1198Z" fill="#263238"/>
<path d="M26.1174 57.6825C26.1174 57.713 25.9469 57.713 25.7919 57.789C25.6214 57.8651 25.5439 57.9867 25.5129 57.9715C25.4819 57.9563 25.5439 57.7738 25.7454 57.6825C25.9314 57.5913 26.1174 57.6521 26.1174 57.6825Z" fill="#263238"/>
<path d="M26.1329 58.6256C26.1019 58.6256 26.1329 58.4431 26.2879 58.3214C26.4429 58.1845 26.6134 58.1845 26.6134 58.2149C26.6134 58.2453 26.4894 58.291 26.3654 58.4127C26.2414 58.5191 26.1639 58.6408 26.1329 58.6256Z" fill="#263238"/>
<path d="M25.8384 56.3745C25.8074 56.3897 25.6834 56.2985 25.5129 56.2224C25.3424 56.1616 25.1719 56.1464 25.1719 56.1159C25.1564 56.0855 25.3424 56.0247 25.5594 56.1159C25.7764 56.192 25.8694 56.3593 25.8384 56.3745Z" fill="#263238"/>
<g opacity="0.3">
<path d="M26.7064 54.5949L26.4274 55.1577L23.3429 53.7736L23.5599 53.2564L26.7064 54.5949Z" fill="black"/>
</g>
<path d="M26.1484 55.7357C26.1484 55.7509 26.0089 55.7205 25.8384 55.5988C25.7454 55.5379 25.6524 55.4619 25.5594 55.3554C25.5129 55.3098 25.4664 55.2489 25.4199 55.1881C25.4044 55.1577 25.3734 55.1273 25.3579 55.0664C25.3424 55.0208 25.3579 54.9295 25.4199 54.8991C25.4664 54.8687 25.5439 54.8687 25.5904 54.8839C25.6369 54.8991 25.6679 54.9295 25.6989 54.9447C25.7609 54.9904 25.8229 55.0512 25.8694 55.0968C25.9624 55.2033 26.0399 55.3098 26.0709 55.4162C26.1639 55.614 26.1639 55.7509 26.1484 55.7509C26.1329 55.7509 26.1019 55.6292 26.0089 55.4619C25.9624 55.3706 25.8849 55.2794 25.7919 55.1881C25.7454 55.1425 25.6989 55.0968 25.6369 55.0512C25.5749 55.0056 25.5284 54.9752 25.4974 55.0056C25.4819 55.0208 25.4819 55.0208 25.4819 55.036C25.4819 55.0664 25.5129 55.0816 25.5284 55.1273C25.5749 55.1881 25.6059 55.2489 25.6524 55.2946C25.7454 55.401 25.8229 55.4771 25.9004 55.5379C26.0399 55.6596 26.1484 55.7205 26.1484 55.7357Z" fill="#263238"/>
<path d="M26.0864 55.7661C26.0709 55.7661 26.0554 55.6292 26.1329 55.4315C26.1639 55.325 26.2414 55.2185 26.3344 55.1121C26.3809 55.0512 26.4429 55.0056 26.5049 54.96C26.5669 54.9143 26.6444 54.8535 26.7839 54.8839C26.8459 54.9143 26.8769 54.9752 26.8769 55.0208C26.8769 55.0664 26.8614 55.1121 26.8614 55.1425C26.8459 55.2185 26.7994 55.2946 26.7684 55.3554C26.6909 55.4771 26.5824 55.5684 26.4894 55.614C26.2879 55.7205 26.1484 55.7053 26.1484 55.6901C26.1484 55.6748 26.2724 55.6596 26.4429 55.538C26.5204 55.4771 26.6134 55.4011 26.6754 55.2946C26.7064 55.2338 26.7374 55.1729 26.7529 55.1121C26.7684 55.036 26.7684 54.9752 26.7374 54.9752C26.7064 54.96 26.6289 54.9904 26.5824 55.036C26.5204 55.0817 26.4739 55.1273 26.4274 55.1729C26.3344 55.2642 26.2724 55.3706 26.2259 55.4619C26.1174 55.6292 26.1019 55.7661 26.0864 55.7661Z" fill="#263238"/>
<path d="M39.9436 55.4163L39.3546 58.8538C39.3546 58.8538 42.7492 60.3444 42.7027 60.9984L35.8206 60.3596L36.5181 54.96L39.9436 55.4163Z" fill="#455A64"/>
<g opacity="0.6">
<path d="M37.2776 58.3062C37.1381 58.3214 37.0296 58.4583 37.0451 58.5952C37.0606 58.7321 37.2001 58.8386 37.3396 58.8234C37.4791 58.8081 37.6186 58.656 37.5876 58.5191C37.5566 58.3823 37.3861 58.2606 37.2621 58.3062" fill="white"/>
</g>
<g opacity="0.6">
<path d="M35.836 60.3748L35.9135 59.8272L42.5321 60.6638C42.5321 60.6638 42.7491 60.7855 42.7491 61.0592L35.836 60.3748Z" fill="white"/>
</g>
<path d="M39.4631 58.8538C39.4631 58.8842 39.2926 58.8842 39.1066 58.9603C38.9206 59.0363 38.8276 59.1732 38.7966 59.158C38.7656 59.1428 38.8431 58.9603 39.0601 58.8538C39.2771 58.7473 39.4786 58.8234 39.4631 58.8538Z" fill="#263238"/>
<path d="M40.1451 59.234C40.1451 59.2644 39.9901 59.3101 39.8661 59.4317C39.7266 59.5534 39.6801 59.7055 39.6491 59.6903C39.6181 59.6903 39.6181 59.4926 39.7886 59.3405C39.9591 59.1884 40.1451 59.2036 40.1451 59.234Z" fill="#263238"/>
<path d="M40.4396 60.1314C40.4086 60.1314 40.3776 59.9641 40.5016 59.7968C40.6101 59.6295 40.7806 59.5838 40.7806 59.5991C40.7961 59.6295 40.6876 59.7055 40.5946 59.8576C40.5016 59.9945 40.4706 60.1314 40.4396 60.1314Z" fill="#263238"/>
<path d="M39.5096 58.0476C39.4941 58.078 39.3391 58.0172 39.1531 58.002C38.9671 57.9868 38.8121 58.0324 38.7966 58.002C38.7811 57.9715 38.9361 57.8803 39.1686 57.8955C39.3856 57.8955 39.5406 58.0172 39.5096 58.0476Z" fill="#263238"/>
<g opacity="0.3">
<path d="M39.8351 56.1007L39.7266 56.7244L36.3631 56.2528L36.4251 55.6901L39.8351 56.1007Z" fill="black"/>
</g>
<path d="M39.6181 57.3479C39.6181 57.3632 39.4786 57.3632 39.2771 57.3023C39.1686 57.2719 39.0601 57.2263 38.9361 57.1502C38.8741 57.1198 38.8121 57.0742 38.7501 57.0285C38.7191 56.9981 38.6881 56.9829 38.6571 56.9373C38.6261 56.8916 38.6106 56.8156 38.6726 56.7547C38.7191 56.7091 38.7811 56.6939 38.8276 56.6939C38.8741 56.6939 38.9206 56.7091 38.9516 56.7243C39.0291 56.7548 39.0911 56.7852 39.1531 56.8308C39.2771 56.9069 39.3701 56.9981 39.4476 57.0742C39.5871 57.2415 39.6181 57.3632 39.6181 57.3784C39.6026 57.3936 39.5406 57.2719 39.3856 57.135C39.3081 57.059 39.2151 56.9981 39.1066 56.9221C39.0446 56.8916 38.9826 56.8612 38.9206 56.8308C38.8431 56.8004 38.7966 56.8004 38.7656 56.8308C38.7501 56.846 38.7501 56.846 38.7656 56.8764C38.7811 56.8916 38.8121 56.9221 38.8276 56.9373C38.8896 56.9829 38.9361 57.0285 38.9981 57.059C39.1066 57.135 39.2151 57.1806 39.3081 57.2263C39.4941 57.3023 39.6181 57.3327 39.6181 57.3479Z" fill="#263238"/>
<path d="M39.5716 57.3936C39.5561 57.3936 39.5096 57.2719 39.5251 57.059C39.5406 56.9525 39.5561 56.8308 39.6181 56.6939C39.6491 56.6331 39.6801 56.557 39.7266 56.4962C39.7731 56.4354 39.8351 56.3593 39.9746 56.3593C40.0366 56.3593 40.0986 56.4202 40.0986 56.4658C40.1141 56.5114 40.1141 56.557 40.1141 56.5875C40.1141 56.6635 40.0986 56.7396 40.0831 56.8156C40.0366 56.9525 39.9591 57.0742 39.8971 57.1502C39.7421 57.3023 39.6026 57.3328 39.5871 57.3176C39.5716 57.3023 39.6956 57.2567 39.8351 57.1046C39.8971 57.0286 39.9591 56.9221 39.9901 56.8004C40.0056 56.7396 40.0056 56.6787 40.0056 56.6027C40.0056 56.5266 39.9901 56.4658 39.9591 56.4658C39.9281 56.4658 39.8661 56.5114 39.8196 56.557C39.7731 56.6179 39.7421 56.6635 39.7111 56.7244C39.6491 56.846 39.6181 56.9525 39.6026 57.059C39.5716 57.2567 39.5871 57.3936 39.5716 57.3936Z" fill="#263238"/>
<path d="M36.7506 32.1143C36.7506 32.1143 42.0517 41.0579 42.4547 42.5789C42.7802 43.8261 42.7027 44.617 42.6252 45.2102C42.5477 45.7274 40.4706 57.6674 40.4706 57.6674C40.4706 57.6674 35.7741 57.2719 35.8206 57.1198C35.8981 56.8764 37.7271 45.2863 37.4636 44.7996C37.2001 44.3128 32.9065 39.187 32.116 38.2744C31.3255 37.3466 29.1555 35.4605 28.892 34.0612C28.6285 32.6923 29.946 29.7719 29.946 29.7719L36.7506 32.1143Z" fill="#263238"/>
<path d="M35.2625 36.2971L31.899 45.5144L26.8459 56.2832L22.5679 54.3211L23.0639 53.1347L27.2489 43.9022L28.9695 38.5482L30.256 32.7075L35.2625 36.2971Z" fill="#263238"/>
<path d="M35.8206 57.135C35.8206 57.135 35.8206 57.1198 35.8206 57.0742C35.8206 57.0285 35.8361 56.9829 35.8361 56.9069C35.8516 56.7548 35.8826 56.557 35.9291 56.2833C36.0066 55.7357 36.1306 54.96 36.2856 54.0017C36.3631 53.515 36.4406 52.9826 36.5336 52.4199C36.5801 52.1309 36.6266 51.8419 36.6731 51.5377C36.7196 51.2335 36.7506 50.9141 36.7971 50.5946C36.9676 49.3018 37.1536 47.872 37.3396 46.3662C37.3551 46.1381 37.3551 45.8795 37.3706 45.6361C37.3861 45.3471 37.4016 45.0734 37.4016 44.8148L37.4171 44.8452C35.4951 42.4876 33.79 40.3886 32.55 38.8676C31.93 38.1071 31.4495 37.4987 31.093 37.0728C30.9225 36.8599 30.7985 36.6925 30.7055 36.5861C30.659 36.5252 30.628 36.4948 30.6125 36.4644C30.6435 36.4948 30.6745 36.5404 30.721 36.5861C30.814 36.6925 30.9535 36.8599 31.124 37.0576C31.4805 37.4835 31.9765 38.0919 32.5965 38.8372C33.8365 40.343 35.5571 42.442 37.4791 44.7996L37.4946 44.8148V44.83C37.4791 45.0886 37.4636 45.3776 37.4636 45.6513C37.4481 45.9099 37.4481 46.1533 37.4326 46.3814C37.2311 47.8872 37.0451 49.317 36.8746 50.6099C36.8281 50.9293 36.7971 51.2487 36.7506 51.5529C36.7041 51.8571 36.6576 52.1461 36.6111 52.4351C36.5181 52.9979 36.4251 53.5302 36.3476 54.0169C36.1926 54.9752 36.0531 55.7509 35.9756 56.2985C35.9291 56.557 35.8981 56.77 35.8671 56.9221C35.8516 56.9829 35.8516 57.0438 35.8361 57.0894C35.8206 57.1198 35.8206 57.135 35.8206 57.135Z" fill="#455A64"/>
<path d="M39.5096 43.9022C39.5096 43.9326 39.0291 44.0695 38.4866 44.3433C37.9286 44.617 37.5256 44.906 37.5101 44.8908C37.5101 44.8756 37.6031 44.7996 37.7581 44.6779C37.9286 44.5562 38.1611 44.4041 38.4401 44.2672C38.7191 44.1303 38.9826 44.0238 39.1841 43.963C39.3856 43.9174 39.5096 43.9022 39.5096 43.9022Z" fill="#455A64"/>
<path d="M39.6956 44.3737C39.6956 44.3889 39.2151 44.4953 38.6261 44.6474C38.0371 44.7995 37.5721 44.9669 37.5566 44.9364C37.5566 44.9212 37.6651 44.8756 37.8511 44.7995C38.0371 44.7235 38.3006 44.6474 38.5951 44.5562C38.8896 44.4801 39.1686 44.4193 39.3701 44.3889C39.5561 44.3889 39.6801 44.3737 39.6956 44.3737Z" fill="#455A64"/>
<path d="M40.6411 56.6179C40.6411 56.6331 39.5871 56.5418 38.3006 56.4202C37.0141 56.2833 35.9601 56.1616 35.9601 56.1312C35.9601 56.116 37.0141 56.2072 38.3006 56.3289C39.6026 56.4658 40.6411 56.6027 40.6411 56.6179Z" fill="#455A64"/>
<path d="M27.3109 55.2794C27.3109 55.2794 27.2489 55.249 27.1404 55.2033C27.0164 55.1425 26.8614 55.0665 26.6909 54.9752C26.3034 54.7775 25.7609 54.5341 25.1719 54.2755C24.5674 54.017 24.0249 53.7736 23.6374 53.5911C23.4359 53.4998 23.2809 53.4238 23.1724 53.3781C23.0639 53.3173 23.0019 53.2869 23.0019 53.2869C23.0019 53.2869 23.0639 53.3021 23.1724 53.3477C23.2964 53.3933 23.4514 53.4694 23.6374 53.5454C24.0404 53.7128 24.5829 53.9409 25.1874 54.1995C25.7919 54.458 26.3189 54.7166 26.7064 54.9296C26.8924 55.036 27.0474 55.1121 27.1559 55.1729C27.2489 55.2338 27.3109 55.2642 27.3109 55.2794Z" fill="#455A64"/>
<path d="M36.1461 10.5918C36.1461 10.5918 35.8361 10.8504 35.6966 11.3979C35.6191 11.7022 35.6811 12.3562 36.2081 12.5083C35.8516 13.3296 36.2546 14.0901 37.1846 14.3183C38.1146 14.5465 39.5716 13.2384 40.5171 13.1015L43.1677 13.0559C43.4002 13.0559 43.5552 12.8125 43.6017 12.5996C43.6482 12.3714 43.6482 12.128 43.7877 11.9455C43.9737 11.6869 44.3457 11.6109 44.5317 11.3675C44.7487 11.0785 44.6247 10.6679 44.4542 10.3637C44.2837 10.0442 44.0667 9.74004 44.0822 9.37499C44.0977 9.05558 44.2992 8.73617 44.2062 8.41675C44.0977 8.0365 43.6017 7.86919 43.4467 7.48893C43.3692 7.30641 43.3847 7.10868 43.3072 6.92616C43.1832 6.62195 42.8267 6.46985 42.4857 6.42422C42.1447 6.37859 41.8037 6.42422 41.4781 6.36338C41.0286 6.28733 40.5946 6.02876 40.1296 6.05918C39.6181 6.0896 39.2306 6.42422 38.8276 6.75884L38.3161 7.12389C38.2076 7.18473 38.1146 7.23036 37.9906 7.27599C37.7891 7.33683 37.5876 7.36725 37.4016 7.47372C37.0141 7.68667 36.9056 8.26465 37.1846 8.61449C36.8126 8.64491 36.4716 8.9339 36.4096 9.29894C36.4096 9.29894 36.2701 9.69441 36.4871 9.93777C36.4871 9.92256 36.0376 10.1203 36.1461 10.5918Z" fill="#263238"/>
<path d="M37.6186 11.8239C37.5721 11.1546 37.5256 10.4854 37.5876 9.81614C37.6496 9.14689 37.8356 8.47764 38.2231 7.91486C38.2851 7.8236 38.7346 7.27604 38.8276 7.30646C38.9051 7.33688 38.5641 7.86923 38.5951 7.93007C38.7966 8.59932 38.7191 9.32941 38.4866 9.98345C38.2696 10.6527 37.9751 11.2307 37.6186 11.8239Z" fill="#263238"/>
<path d="M38.1301 18.7445C36.7041 18.2122 36.8126 15.018 36.8126 15.018L38.1611 9.31423C38.5176 7.65632 39.7886 6.48514 41.4626 6.8806L41.6176 6.92623C43.1522 7.38254 44.0667 8.91877 43.7257 10.455C43.4157 11.8848 43.0437 13.4666 42.8112 14.2119C42.3152 15.7481 40.6566 15.5352 40.6566 15.5352C40.6566 15.5352 40.5481 15.9611 40.4551 16.4174C40.0986 18.1057 39.6491 18.8206 39.2461 18.6837L38.1301 18.7445Z" fill="#E49384"/>
<path d="M40.6721 15.52C40.6721 15.52 39.6646 15.2766 38.7966 14.3184C38.7966 14.3184 38.9516 15.596 40.5636 15.9154L40.6721 15.52Z" fill="#A86B62"/>
<path d="M42.7802 11.6566C42.7492 11.7783 42.6252 11.8391 42.5012 11.8087C42.3772 11.7783 42.2997 11.6566 42.3307 11.5349C42.3617 11.4132 42.4857 11.3524 42.6097 11.3828C42.7337 11.4132 42.8112 11.5349 42.7802 11.6566Z" fill="#263238"/>
<path d="M43.2142 10.9873C43.1832 11.0026 43.0437 10.8352 42.7957 10.7592C42.5477 10.6831 42.3307 10.7592 42.3152 10.7136C42.2997 10.6984 42.3462 10.6527 42.4392 10.6223C42.5322 10.5919 42.6717 10.5767 42.8267 10.6223C42.9817 10.6679 43.0902 10.7592 43.1367 10.8352C43.2142 10.9265 43.2297 10.9873 43.2142 10.9873Z" fill="#263238"/>
<path d="M40.6566 11.1394C40.6256 11.2611 40.5016 11.322 40.3776 11.2915C40.2536 11.2611 40.1761 11.1394 40.2071 11.0178C40.2381 10.8961 40.3621 10.8352 40.4861 10.8657C40.6101 10.8961 40.6876 11.0178 40.6566 11.1394Z" fill="#263238"/>
<path d="M40.7961 10.379C40.7651 10.3942 40.6256 10.2268 40.3776 10.1508C40.1296 10.0747 39.9126 10.1508 39.8971 10.1052C39.8816 10.09 39.9281 10.0443 40.0211 10.0139C40.1141 9.98349 40.2536 9.96828 40.4086 10.0139C40.5636 10.0595 40.6721 10.1508 40.7186 10.2268C40.8116 10.3181 40.8116 10.379 40.7961 10.379Z" fill="#263238"/>
<path d="M41.1061 12.4779C41.1061 12.4627 41.2611 12.4779 41.5246 12.5235C41.5866 12.5388 41.6486 12.5388 41.6796 12.5083C41.7106 12.4627 41.6951 12.4019 41.6951 12.3106C41.6796 12.1433 41.6641 11.976 41.6486 11.7935C41.6021 11.0634 41.5866 10.455 41.6176 10.455C41.6486 10.455 41.7106 11.0482 41.7727 11.7782C41.7882 11.9608 41.7882 12.1281 41.8037 12.2954C41.8037 12.3714 41.8192 12.4627 41.7571 12.5388C41.7261 12.5844 41.6642 12.5996 41.6331 12.5996C41.5866 12.5996 41.5556 12.5844 41.5246 12.5844C41.2611 12.5235 41.1061 12.4931 41.1061 12.4779Z" fill="#263238"/>
<path d="M39.8816 9.28381C39.9126 9.22297 40.1606 9.25339 40.4551 9.23818C40.7496 9.22297 40.9976 9.14692 41.0286 9.20776C41.0441 9.23818 40.9976 9.29902 40.9046 9.35986C40.8116 9.4207 40.6566 9.48154 40.4706 9.49675C40.2846 9.51196 40.1296 9.48154 40.0211 9.4207C39.9281 9.37507 39.8661 9.31423 39.8816 9.28381Z" fill="#263238"/>
<path d="M42.7182 9.58797C42.7957 9.57276 42.8887 9.72486 43.0437 9.86175C43.1987 9.99864 43.3692 10.0747 43.3537 10.1507C43.3537 10.1812 43.2917 10.2116 43.1987 10.1964C43.1057 10.1964 42.9817 10.1355 42.8732 10.0443C42.7647 9.95301 42.7027 9.83133 42.6872 9.74007C42.6717 9.64881 42.6872 9.58797 42.7182 9.58797Z" fill="#263238"/>
<path d="M37.9441 10.5006C37.9131 10.4854 36.9521 9.86176 36.6576 10.9265C36.3631 11.9912 37.5256 12.0672 37.5256 12.0368C37.5566 12.0064 37.9441 10.5006 37.9441 10.5006Z" fill="#E49384"/>
<path d="M37.3241 11.5501C37.3241 11.5501 37.3086 11.5653 37.2621 11.5653C37.2311 11.5653 37.1691 11.5653 37.1226 11.5349C37.0141 11.4588 36.9676 11.2611 37.0141 11.0634C37.0451 10.9721 37.0916 10.8809 37.1381 10.8048C37.2001 10.7288 37.2621 10.6983 37.3241 10.6983C37.3861 10.6983 37.4171 10.744 37.4171 10.7744C37.4171 10.8048 37.4171 10.8352 37.4171 10.8352C37.4171 10.8352 37.4481 10.82 37.4481 10.7744C37.4481 10.7592 37.4481 10.7288 37.4171 10.6983C37.4016 10.6679 37.3551 10.6527 37.3241 10.6375C37.2311 10.6223 37.1381 10.6831 37.0761 10.744C37.0141 10.82 36.9521 10.9113 36.9366 11.0177C36.8901 11.2307 36.9366 11.4588 37.0916 11.5501C37.1691 11.5957 37.2311 11.5805 37.2776 11.5653C37.3086 11.5653 37.3241 11.5501 37.3241 11.5501Z" fill="#A86B62"/>
<path d="M43.5087 8.49287C43.7102 8.44724 43.3227 7.74757 42.9507 7.44336C42.3772 6.98706 41.4162 6.54596 40.7651 6.56117C39.9901 6.57638 39.2771 6.77412 38.7501 7.33689C38.2076 7.89967 37.8821 8.61455 37.6961 9.37506C37.6496 9.60321 37.6031 9.84657 37.6806 10.0747C37.7736 10.3485 38.0216 10.5767 37.9286 10.8961C37.8976 11.0178 37.8976 11.1394 37.9596 11.2459C38.0991 11.5045 38.3936 11.3676 38.5641 11.2003C38.9206 10.8352 39.0756 10.3485 39.2151 9.87699C39.3236 9.54237 39.4321 9.19253 39.4166 8.8427C39.4166 8.64497 39.3701 8.46245 39.3701 8.26471C39.3701 8.06698 39.4321 7.86925 39.5871 7.74757C39.6181 7.73236 39.6491 7.70194 39.6956 7.68673C40.0676 7.5042 40.5326 7.53462 40.8891 7.76278C41.4472 8.12782 42.4082 8.72102 42.7492 8.58413C43.2142 8.38639 43.3692 8.21908 43.3692 8.21908L43.5087 8.49287Z" fill="#263238"/>
<path d="M40.8426 6.43951C41.4937 6.39388 42.1757 6.5764 42.6562 7.00228C42.9197 7.23044 43.1212 7.53464 43.1212 7.88447C43.1212 8.2191 42.8887 8.58414 42.5477 8.62977L42.5167 8.64498C42.0052 8.6754 41.7262 8.53851 41.3076 8.26473C40.9511 8.03658 40.6721 7.70195 40.3156 7.4738C39.9281 7.23044 39.4786 7.09355 39.0291 7.10876C39.5716 6.74371 40.1916 6.48514 40.8426 6.43951Z" fill="#263238"/>
<path d="M38.5021 7.00229C38.5021 7.0175 38.6261 6.92623 38.8276 6.85018C38.9361 6.80455 39.0601 6.77413 39.1996 6.75892C39.3391 6.74371 39.5096 6.74371 39.6646 6.78934C39.9901 6.89581 40.2226 7.10876 40.3466 7.27607C40.4861 7.44338 40.5326 7.58027 40.5481 7.58027C40.5481 7.58027 40.5481 7.54985 40.5171 7.48901C40.5016 7.42817 40.4551 7.35212 40.3931 7.26086C40.2691 7.07834 40.0211 6.85018 39.6801 6.7285C39.5096 6.66766 39.3391 6.66766 39.1841 6.69808C39.0291 6.71329 38.9051 6.75892 38.7966 6.80455C38.5951 6.89581 38.5021 6.98708 38.5021 7.00229Z" fill="#455A64"/>
<path d="M42.1292 6.63721C42.1292 6.65242 42.2377 6.69805 42.3927 6.81973C42.5477 6.9262 42.7492 7.10872 42.9352 7.33688C43.1057 7.56503 43.2297 7.80839 43.2917 7.99091C43.3537 8.17343 43.3847 8.29512 43.3847 8.29512C43.4002 8.29512 43.3847 8.17343 43.3382 7.9757C43.2917 7.79318 43.1832 7.53461 42.9972 7.29124C42.8112 7.04788 42.5942 6.88057 42.4237 6.7741C42.2532 6.66763 42.1292 6.63721 42.1292 6.63721Z" fill="#455A64"/>
<path d="M40.9511 12.9495C40.9046 12.8886 40.7961 12.7822 40.7186 12.7974C40.6566 12.7974 40.5946 12.8126 40.5481 12.8582C40.4706 12.919 40.4396 13.0255 40.4241 13.1168C40.4086 13.2233 40.4241 13.3297 40.5016 13.4058C40.5791 13.4818 40.7031 13.4818 40.7961 13.4362C40.8891 13.3906 40.9511 13.2841 40.9666 13.1776C40.9976 13.1016 40.9821 13.0103 40.9511 12.9495Z" fill="#A86B62"/>
<path d="M40.7496 13.4818C40.7496 13.4818 40.6721 13.5275 40.5326 13.4666C40.4086 13.4058 40.3001 13.1928 40.3776 12.9951C40.4086 12.9038 40.4861 12.8126 40.5791 12.7822C40.6721 12.7365 40.7651 12.7517 40.8271 12.7822C40.8891 12.8126 40.9356 12.8582 40.9511 12.8886C40.9666 12.919 40.9666 12.9495 40.9666 12.9495C40.9511 12.9495 40.9356 12.8734 40.8116 12.8278C40.7651 12.8126 40.6876 12.8126 40.6256 12.843C40.5636 12.8734 40.5016 12.9343 40.4706 13.0255C40.4086 13.1928 40.4706 13.3601 40.5791 13.421C40.6566 13.4818 40.7496 13.4666 40.7496 13.4818Z" fill="#263238"/>
<path d="M39.9591 8.69057C39.9281 8.55368 39.9126 8.432 39.8816 8.2951C39.8506 8.37116 39.8041 8.50805 39.7886 8.56889C39.7731 8.62973 39.7576 8.70578 39.8041 8.75141C39.8506 8.79704 39.9436 8.81225 39.9591 8.75141C39.9591 8.7362 39.9591 8.70578 39.9591 8.69057Z" fill="#FAFAFA"/>
<path d="M39.7111 9.01003C39.6801 8.87314 39.6646 8.75145 39.6336 8.61456C39.6026 8.69061 39.5561 8.82751 39.5406 8.88835C39.5251 8.94919 39.5096 9.02524 39.5561 9.07087C39.5871 9.13171 39.6956 9.13171 39.7111 9.07087C39.7111 9.05566 39.7111 9.02524 39.7111 9.01003Z" fill="#FAFAFA"/>
<path d="M46.3917 16.5239L46.2987 16.6151L46.2212 16.5239V15.8698L46.2987 15.7786L46.3917 15.8698V16.5239Z" fill="#263238"/>
<path d="M45.4772 16.5239L45.3997 16.6151L45.3067 16.5239V15.8698L45.3997 15.7786L45.4772 15.8698V16.5239Z" fill="#263238"/>
<path d="M46.4072 17.33L46.3142 17.406L46.2367 17.33V16.7216L46.3142 16.6455L46.4072 16.7216V17.33Z" fill="#263238"/>
<path d="M48.0347 16.4935L47.9417 16.5847L47.8487 16.4935V15.7938L47.9417 15.6873L48.0347 15.7938V16.4935Z" fill="#263238"/>
<path d="M48.0347 17.4364L47.9417 17.5277L47.8487 17.4364V16.7368L47.9417 16.6303L48.0347 16.7368V17.4364Z" fill="#263238"/>
<path d="M48.7478 16.5087L48.6548 16.5999L48.5618 16.5087V15.8546L48.6548 15.7634L48.7478 15.8546V16.5087Z" fill="#263238"/>
<path d="M49.6623 17.3604L49.5693 17.4365L49.4763 17.3604V16.7064L49.5693 16.6151L49.6623 16.7064V17.3604Z" fill="#263238"/>
<path d="M46.1747 16.5391L46.2677 16.6303L46.1747 16.7216H45.5082L45.4152 16.6303L45.5082 16.5391H46.1747Z" fill="#263238"/>
<path d="M46.2057 17.3604L46.2832 17.4517L46.2057 17.5277H45.5392L45.4462 17.4517L45.5392 17.3604H46.2057Z" fill="#263238"/>
<path d="M46.1747 15.6721L46.2677 15.7481L46.1747 15.8394H45.5082L45.4152 15.7481L45.5082 15.6721H46.1747Z" fill="#263238"/>
<path d="M49.4453 15.6721L49.5383 15.7481L49.4453 15.8394H48.7943L48.6858 15.7481L48.7943 15.6721H49.4453Z" fill="#263238"/>
<path d="M49.4453 16.5087L49.5383 16.5999L49.4453 16.6912H48.7943L48.6858 16.5999L48.7943 16.5087H49.4453Z" fill="#263238"/>
<path d="M49.4453 17.3756L49.5383 17.4669L49.4453 17.5429H48.7943L48.6858 17.4669L48.7943 17.3756H49.4453Z" fill="#263238"/>
<path d="M47.2752 16.3109C47.2752 16.387 47.2132 16.4478 47.1357 16.4478C47.0582 16.4478 46.9962 16.387 46.9962 16.3109C46.9962 16.2349 47.0582 16.174 47.1357 16.174C47.2132 16.174 47.2752 16.2349 47.2752 16.3109Z" fill="#263238"/>
<path d="M47.2752 16.965C47.2752 17.041 47.2132 17.1018 47.1357 17.1018C47.0582 17.1018 46.9962 17.041 46.9962 16.965C46.9962 16.8889 47.0582 16.8281 47.1357 16.8281C47.2132 16.8281 47.2752 16.8889 47.2752 16.965Z" fill="#263238"/>
<path d="M50.3133 18.1209C50.3133 18.1209 50.3753 18.1209 50.4993 18.0753C50.6078 18.0297 50.7938 17.908 50.8403 17.6798C50.8558 17.5734 50.8403 17.4365 50.8403 17.2844C50.8403 17.1323 50.8403 16.9802 50.8403 16.8128C50.8403 16.4782 50.8403 16.0828 50.8403 15.6569C50.8403 15.4591 50.7163 15.2462 50.4993 15.1701C50.3908 15.1245 50.2823 15.1397 50.1583 15.1397C50.0343 15.1397 49.9103 15.1397 49.7863 15.1397C49.2748 15.1397 48.7323 15.1397 48.1587 15.1397C47.0117 15.1397 45.7562 15.1397 44.4232 15.1397C44.2682 15.1397 44.1132 15.2158 44.0202 15.3222C43.9737 15.3831 43.9427 15.4439 43.9272 15.52C43.9117 15.596 43.9117 15.6721 43.9117 15.7481C43.9117 16.0675 43.9117 16.3718 43.9117 16.676C43.9117 16.9802 43.9117 17.2844 43.9117 17.5734C43.9117 17.7102 43.9892 17.8471 44.0822 17.9232C44.1907 18.0145 44.3147 18.0601 44.4542 18.0449C45.6012 18.0449 46.6397 18.0449 47.5077 18.0601C48.3757 18.0601 49.0733 18.0753 49.5693 18.0753C49.8018 18.0753 49.9878 18.0753 50.1273 18.0753C50.1893 18.0753 50.2358 18.0753 50.2668 18.0753C50.2978 18.1209 50.3133 18.1209 50.3133 18.1209C50.3133 18.1209 50.2978 18.1209 50.2668 18.1209C50.2358 18.1209 50.1893 18.1209 50.1273 18.1209C49.9878 18.1209 49.8018 18.1209 49.5693 18.1209C49.0733 18.1209 48.3757 18.1209 47.5077 18.1361C46.6397 18.1361 45.6012 18.1361 44.4542 18.1513C44.3147 18.1666 44.1442 18.1209 44.0202 18.0145C43.8962 17.908 43.8187 17.7711 43.8187 17.6038C43.8187 17.3148 43.8187 17.0106 43.8187 16.7064C43.8187 16.4022 43.8187 16.0828 43.8187 15.7786C43.8187 15.7025 43.8187 15.6112 43.8342 15.5352C43.8497 15.4591 43.8962 15.3679 43.9427 15.307C44.0512 15.1701 44.2217 15.0941 44.4077 15.0941C45.7252 15.0941 46.9962 15.0941 48.1432 15.0941C48.7168 15.0941 49.2593 15.0941 49.7708 15.0941C49.8948 15.0941 50.0188 15.0941 50.1428 15.0941C50.2668 15.0941 50.3908 15.0789 50.5148 15.1397C50.7473 15.231 50.9023 15.4591 50.8868 15.6873C50.8868 16.1132 50.8868 16.4934 50.8868 16.8433C50.8868 17.0106 50.8868 17.1627 50.8868 17.3148C50.8868 17.4669 50.8868 17.5886 50.8713 17.7102C50.8093 17.9536 50.6233 18.0753 50.5148 18.1057C50.4528 18.1209 50.4063 18.1361 50.3753 18.1361C50.3288 18.1209 50.3133 18.1209 50.3133 18.1209Z" fill="#263238"/>
<path d="M46.1437 21.4063C46.1127 21.4367 45.6787 20.7979 45.1672 20.007C44.9192 19.6115 44.6867 19.2465 44.5317 18.9879C44.3767 18.7293 44.2837 18.562 44.2837 18.5468C44.2992 18.5468 44.4077 18.6989 44.5782 18.9575C44.7487 19.2161 44.9812 19.5659 45.2292 19.9614C45.4772 20.3416 45.6942 20.6914 45.8647 20.9804C45.9887 21.1782 46.0662 21.2999 46.1437 21.4063Z" fill="#263238"/>
<path d="M49.6623 19.9918C49.6468 19.9765 49.8328 19.6115 50.0808 19.1552C50.3288 18.6989 50.5613 18.3491 50.5768 18.3491C50.5923 18.3643 50.4063 18.7293 50.1583 19.1856C49.8948 19.6419 49.6778 20.007 49.6623 19.9918Z" fill="#263238"/>
<path d="M40.1761 18.2578C40.2381 18.349 42.5477 21.5279 42.5477 21.5279L39.5096 24.57L38.7811 22.9729L40.1761 18.2578Z" fill="#5EF1CE"/>
<g opacity="0.3">
<path d="M39.4321 24.4788C40.6566 22.8817 40.9356 20.6458 40.1296 18.8054L39.4321 24.4788Z" fill="black"/>
</g>
<path d="M37.0451 13.7404L36.4096 14.3488C36.4096 14.3488 34.41 14.653 34.193 14.7899C33.7435 15.0636 30.0235 23.1402 30.0235 23.1402L28.6904 28.9353C28.6129 29.2852 28.8144 29.6198 29.1555 29.7415L36.6111 32.1903C36.6111 32.1903 37.0916 32.2664 37.3706 31.7948C37.5876 31.4146 39.1066 25.7868 39.6801 23.5813C39.8351 22.9881 40.0366 21.6953 40.0211 21.7409L40.2691 18.1057L40.3311 17.5885L40.6566 17.619L40.5791 17.117L40.4086 16.7063L39.9591 17.5885L39.4941 16.3565L37.0451 13.7404Z" fill="#5EF1CE"/>
<g opacity="0.3">
<path d="M30.9845 22.6079C30.535 23.0034 30.0855 23.4292 29.822 23.9616C29.5275 24.5548 29.4654 25.224 29.4344 25.8781C29.3414 27.3687 29.3569 28.8745 29.4654 30.3651L29.729 31.4146C30.5815 29.5589 30.6125 27.4599 30.9225 25.4522C31.0155 24.8742 31.124 24.281 31.434 23.7791C31.7595 23.2315 32.2865 22.8361 32.767 22.395C33.511 21.7105 34.162 20.9348 34.689 20.083C33.356 20.7827 32.116 21.6344 30.9845 22.6079Z" fill="black"/>
</g>
<path d="M39.9436 17.619C39.9436 17.619 39.9281 17.5885 39.8971 17.5429C39.8661 17.4821 39.8196 17.406 39.7576 17.2995C39.6336 17.0866 39.4786 16.7824 39.2926 16.4326H39.3546C39.1686 16.6759 38.8896 16.8889 38.6726 17.1779L38.6416 17.2083L38.6106 17.1779C38.4711 17.041 38.3161 16.8889 38.1766 16.7216C38.0371 16.5695 37.9131 16.4021 37.7891 16.25C37.6651 16.0979 37.5566 15.9458 37.4481 15.8089C37.2311 15.52 37.0451 15.2766 36.8746 15.0484C36.7196 14.8355 36.5956 14.6682 36.4871 14.5313C36.3941 14.4096 36.3476 14.3336 36.3631 14.3336C36.3631 14.3336 36.4251 14.3944 36.5181 14.5161C36.6266 14.6378 36.7506 14.8203 36.9211 15.018C37.0916 15.231 37.2931 15.4895 37.5101 15.7633C37.6186 15.9002 37.7426 16.0523 37.8511 16.2044C37.9751 16.3565 38.0991 16.5238 38.2386 16.6759C38.3781 16.8432 38.5331 16.9953 38.6726 17.1322H38.6106C38.8431 16.8432 39.1221 16.6303 39.3081 16.3869L39.3391 16.3413L39.3701 16.3869C39.5406 16.7368 39.6956 17.041 39.8041 17.2691C39.8506 17.3604 39.8816 17.4516 39.9126 17.5125C39.9281 17.5885 39.9436 17.619 39.9436 17.619Z" fill="#263238"/>
<path d="M35.5415 14.9115C35.5415 14.9115 34.007 14.0293 31.713 16.4173C29.698 18.5163 28.8299 19.4594 28.8299 19.4594L32.1625 22.6079C32.1625 22.6079 35.65 19.216 36.2391 18.3795C36.8281 17.5581 36.8281 16.0219 35.5415 14.9115Z" fill="#5EF1CE"/>
<path d="M36.2546 18.3642C36.2546 18.3642 36.2391 18.3947 36.1926 18.4555C36.1461 18.5163 36.0841 18.6076 35.9911 18.7141C35.8051 18.9422 35.5261 19.2464 35.1695 19.6267C34.4565 20.3872 33.418 21.4367 32.2245 22.6079L32.1935 22.6383L32.1625 22.6079C31.8215 22.2885 31.465 21.9538 31.1085 21.6192C30.287 20.8435 29.512 20.1134 28.83 19.4594L28.799 19.429L28.83 19.3985C29.6825 18.5011 30.411 17.7558 30.9225 17.2083C31.1705 16.9497 31.372 16.7368 31.5115 16.5999C31.5735 16.539 31.6355 16.4782 31.6665 16.4325C31.6975 16.4021 31.7285 16.3717 31.7285 16.3869C31.7285 16.3869 31.713 16.4021 31.682 16.4478C31.651 16.4934 31.589 16.539 31.527 16.6151C31.3875 16.7672 31.186 16.9801 30.938 17.2387C30.4265 17.7863 29.7135 18.5468 28.8765 19.4442V19.3985C29.5585 20.0374 30.3335 20.7827 31.155 21.5432C31.5115 21.8778 31.868 22.2124 32.209 22.5318H32.147C33.3405 21.3606 34.379 20.3264 35.1075 19.5658C35.4796 19.1856 35.7586 18.8814 35.9446 18.6684C36.0376 18.562 36.1151 18.4707 36.1616 18.4251C36.2236 18.3947 36.2546 18.3642 36.2546 18.3642Z" fill="#263238"/>
<path d="M36.5801 17.695C36.5646 17.695 36.6576 17.4669 36.6731 17.0714C36.6886 16.6912 36.5956 16.1284 36.2236 15.6569C35.8516 15.1853 35.34 14.942 34.9525 14.8507C34.565 14.7595 34.317 14.7899 34.317 14.7747C34.317 14.7747 34.379 14.7595 34.4875 14.7595C34.596 14.7595 34.7665 14.7595 34.968 14.8051C35.3555 14.8811 35.9136 15.1245 36.2856 15.6112C36.6576 16.1132 36.7506 16.6912 36.7196 17.0866C36.7041 17.2843 36.6731 17.4365 36.6266 17.5429C36.6111 17.6342 36.5956 17.695 36.5801 17.695Z" fill="#263238"/>
<path opacity="0.3" d="M39.3236 16.4174L38.6416 17.1627L36.6111 14.6834C37.0296 15.3527 38.3471 17.4365 38.7036 17.619L39.3081 16.8433L39.7111 17.1931L39.3236 16.4174Z" fill="black"/>
<path d="M40.2536 18.1057C40.2536 18.1057 40.2536 18.1969 40.2536 18.3794C40.2536 18.562 40.2381 18.8053 40.2226 19.1095C40.1916 19.7331 40.1451 20.5849 40.0366 21.5127C39.9281 22.4558 39.7731 23.2923 39.6181 23.8855C39.5406 24.1897 39.4631 24.4331 39.4166 24.5852C39.3546 24.7525 39.3236 24.8438 39.3236 24.8438C39.3236 24.8438 39.3391 24.7525 39.3856 24.5852C39.4321 24.4179 39.4941 24.1745 39.5716 23.8703C39.7111 23.2771 39.8661 22.4253 39.9746 21.4975C40.0831 20.5697 40.1296 19.7179 40.1761 19.0943C40.1916 18.7901 40.2226 18.5467 40.2381 18.3642C40.2381 18.1969 40.2536 18.1057 40.2536 18.1057Z" fill="#263238"/>
<path d="M36.4251 20.0526C36.4251 20.0526 36.3941 20.0982 36.3476 20.1894C36.3011 20.2807 36.2236 20.4176 36.1461 20.5697C35.9601 20.9043 35.712 21.3606 35.402 21.9082V21.8778C35.557 22.3189 35.7275 22.8208 35.9291 23.3684L35.8981 23.3379C36.3166 23.3227 36.7816 23.3075 37.2466 23.3075C37.3396 23.3075 37.4481 23.3075 37.5411 23.2923L37.5101 23.3075C37.8976 22.6079 38.2541 21.9538 38.5641 21.3758L38.5796 21.4215C37.9441 21.0108 37.4016 20.6762 37.0141 20.4176C36.8281 20.2959 36.6886 20.2047 36.5801 20.1286C36.5336 20.0982 36.4871 20.0678 36.4561 20.0526C36.4406 20.0678 36.4251 20.0526 36.4251 20.0526C36.4251 20.0526 36.4716 20.083 36.5801 20.1438C36.6886 20.2047 36.8436 20.2959 37.0296 20.4176C37.4171 20.661 37.9751 20.9956 38.6261 21.391L38.6571 21.4063L38.6416 21.4367C38.3316 21.9995 37.9751 22.6687 37.5876 23.3684L37.5721 23.3836H37.5411C37.4481 23.3836 37.3396 23.3836 37.2466 23.3988C36.7816 23.414 36.3166 23.4292 35.8981 23.4292H35.8671L35.8516 23.3988C35.6655 22.8512 35.495 22.3493 35.34 21.9082V21.893V21.8778C35.6655 21.3302 35.9291 20.8739 36.1151 20.5393C36.2081 20.3872 36.2701 20.2655 36.3321 20.1742C36.4096 20.0982 36.4251 20.0526 36.4251 20.0526Z" fill="#263238"/>
<path d="M38.3006 21.9842C38.2851 21.9994 37.7891 21.7256 37.1691 21.3606C36.5491 20.9956 36.0686 20.6914 36.0841 20.6761C36.0996 20.6609 36.5956 20.9347 37.2156 21.2998C37.8201 21.6496 38.3161 21.969 38.3006 21.9842Z" fill="#263238"/>
<path d="M40.5946 17.5277C40.5791 17.5277 40.5636 17.4668 40.5171 17.3756C40.4706 17.2843 40.4241 17.117 40.3621 16.9801H40.4241C40.4086 16.9953 40.3931 17.0257 40.3931 17.0562C40.2071 17.3908 40.0056 17.6189 39.9901 17.6189C39.9746 17.6037 40.1451 17.3604 40.3311 17.0257C40.3466 16.9953 40.3621 16.9801 40.3621 16.9649L40.3931 16.9041L40.4241 16.9649C40.4706 17.0562 40.4861 17.1322 40.5171 17.193C40.5326 17.2691 40.5636 17.3299 40.5636 17.3756C40.5946 17.4516 40.5946 17.5125 40.5946 17.5277Z" fill="#263238"/>
<path d="M24.2264 37.9549C24.2264 37.9549 26.4274 34.198 27.5744 34.1676C28.7059 34.1372 30.1475 34.411 30.2405 35.1563C30.3335 35.9016 30.3025 36.9511 30.0235 37.9549C29.7445 38.9588 29.016 40.3734 29.016 40.3734L27.9929 39.7954C27.9929 39.7954 29.8065 35.8864 29.7445 35.1563C29.6825 34.4414 27.8224 34.1828 27.3264 34.8064C26.8304 35.43 25.0169 38.396 25.0169 38.396L24.2264 37.9549Z" fill="#455A64"/>
<path d="M29.3105 19.9461C29.3105 19.9461 27.4349 22.0755 27.1559 22.6991C26.8769 23.3228 27.2644 28.6463 27.5124 31.4906H29.636L30.442 23.5661L31.7595 22.2733L29.3105 19.9461Z" fill="#E49384"/>
<path d="M17.9952 41.9096C18.7703 40.2973 20.5373 36.7838 21.3123 35.2323C21.5293 34.8064 22.0408 34.6239 22.4748 34.8217L32.3175 39.1413C32.7515 39.3391 32.9685 39.841 32.7825 40.2669L29.9769 47.0354C29.7909 47.4917 29.2484 47.7047 28.7989 47.5069L18.4447 43.0808C17.9797 42.883 17.7782 42.3507 17.9952 41.9096Z" fill="#455A64"/>
<path d="M25.5439 39.1109L22.3198 37.5443L23.0794 35.8712L26.3654 37.3161L25.5439 39.1109Z" fill="#F5F5F5"/>
<path d="M25.7454 37.7268C25.7299 37.742 25.1874 37.5139 24.5209 37.1944C23.8544 36.8902 23.3119 36.6165 23.3274 36.6012C23.3429 36.586 23.8854 36.8142 24.5519 37.1336C25.2339 37.4378 25.7609 37.6964 25.7454 37.7268Z" fill="#263238"/>
<path d="M25.5749 38.1679C25.5594 38.1831 25.0169 37.955 24.3504 37.6355C23.6839 37.3313 23.1413 37.0576 23.1568 37.0423C23.1723 37.0271 23.7149 37.2553 24.3814 37.5747C25.0479 37.8789 25.5749 38.1527 25.5749 38.1679Z" fill="#263238"/>
<path d="M25.3889 38.609C25.3734 38.6242 24.8309 38.3961 24.1644 38.0766C23.4979 37.7724 22.9553 37.4987 22.9708 37.4834C22.9863 37.4682 23.5289 37.6964 24.1954 38.0158C24.8619 38.32 25.3889 38.5938 25.3889 38.609Z" fill="#263238"/>
<path d="M28.3339 40.3734L24.2574 38.5178L25.2184 36.434L29.3104 38.244L28.3339 40.3734Z" fill="#E0E0E0"/>
<path d="M28.5354 38.7459C28.5199 38.7611 27.8379 38.4721 27.0009 38.0767C26.1639 37.6812 25.4974 37.3618 25.5129 37.3314C25.5284 37.3162 26.2104 37.6052 27.0474 38.0006C27.8844 38.3961 28.5509 38.7155 28.5354 38.7459Z" fill="#263238"/>
<path d="M28.3184 39.2935C28.3029 39.3087 27.6209 39.0197 26.7839 38.6242C25.9469 38.2288 25.2804 37.9093 25.2959 37.8789C25.3114 37.8485 25.9934 38.1527 26.8304 38.5482C27.6519 38.9436 28.3184 39.2783 28.3184 39.2935Z" fill="#263238"/>
<path d="M28.0859 39.841C28.0704 39.8562 27.3884 39.5672 26.5514 39.1718C25.7144 38.7763 25.0479 38.4569 25.0634 38.4265C25.0789 38.4113 25.7609 38.7003 26.5979 39.0957C27.4194 39.4912 28.1014 39.8258 28.0859 39.841Z" fill="#263238"/>
<path d="M31.341 41.651C31.341 41.651 31.3255 41.6814 31.31 41.7271C31.2945 41.7727 31.248 41.8488 31.217 41.94C31.124 42.1378 31 42.4115 30.845 42.7766C30.5195 43.5067 30.039 44.5562 29.4345 45.849C29.4035 45.9251 29.3569 46.0163 29.3259 46.0924C29.2949 46.1837 29.2329 46.2597 29.1554 46.3206C29.0779 46.3814 28.9694 46.4118 28.8764 46.4118C28.7679 46.4118 28.6749 46.3662 28.5819 46.3358C28.2254 46.1837 27.8379 46.0163 27.4504 45.849C26.6754 45.5144 25.8384 45.1494 24.9704 44.7691C24.1024 44.3889 23.1724 43.9934 22.2268 43.5675C21.7463 43.3546 21.2658 43.1568 20.7698 42.9287C20.5218 42.8222 20.2738 42.7157 20.0258 42.6093L19.8398 42.5332C19.7778 42.5028 19.7158 42.4876 19.6538 42.442C19.5298 42.3507 19.4523 42.2138 19.4523 42.0617C19.4523 42.0009 19.4678 41.94 19.4833 41.8792C19.5143 41.8183 19.5298 41.7727 19.5608 41.7119C19.6073 41.6054 19.6538 41.4989 19.7158 41.3925C19.8088 41.1795 19.9173 40.9818 20.0103 40.7688C20.2118 40.3582 20.3978 39.9475 20.5838 39.552C20.9713 38.7459 21.3278 37.9702 21.6843 37.2401L21.6998 37.2097L21.7308 37.2249C24.4899 38.6242 26.8924 39.7193 28.6129 40.4646C29.4655 40.8449 30.163 41.1339 30.628 41.3316C30.8605 41.4381 31.0465 41.5141 31.1705 41.5598C31.2325 41.5902 31.279 41.6054 31.31 41.6206C31.3255 41.6358 31.341 41.651 31.341 41.651C31.341 41.651 31.3255 41.651 31.2945 41.6358C31.2635 41.6206 31.217 41.6054 31.155 41.575C31.031 41.5293 30.845 41.4533 30.6125 41.362C30.1475 41.1643 29.45 40.8905 28.5974 40.5103C26.8769 39.765 24.4589 38.685 21.6998 37.2857L21.7463 37.2705C21.3898 38.0158 21.0333 38.7915 20.6458 39.5824C20.4598 39.9779 20.2583 40.3886 20.0723 40.7993C19.9793 41.0122 19.8708 41.2099 19.7778 41.4229C19.7313 41.5293 19.6848 41.6358 19.6228 41.7423C19.5763 41.8488 19.5143 41.94 19.5298 42.0465C19.5298 42.1682 19.5918 42.2899 19.7003 42.3659C19.7468 42.3963 19.8088 42.4267 19.8708 42.4572L20.0568 42.5332C20.3048 42.6397 20.5528 42.7462 20.8008 42.8526C21.2968 43.0656 21.7773 43.2785 22.2578 43.4915C23.2034 43.9021 24.1334 44.3128 25.0014 44.6931C25.8694 45.0733 26.7064 45.4384 27.4814 45.773C27.8689 45.9403 28.2409 46.1076 28.6129 46.2597C28.7059 46.3053 28.7834 46.3358 28.8764 46.3358C28.9694 46.3358 29.0624 46.3053 29.1244 46.2597C29.2019 46.2141 29.2484 46.138 29.2794 46.0468C29.3105 45.9707 29.357 45.8795 29.388 45.8034C29.9925 44.5105 30.473 43.4762 30.814 42.7462C30.9845 42.3811 31.1085 42.1073 31.2015 41.9096C31.248 41.8183 31.279 41.7423 31.31 41.6967C31.3255 41.6662 31.341 41.651 31.341 41.651Z" fill="#263238"/>
<path d="M26.5824 44.7083C26.5824 44.7083 26.6444 44.7387 26.7684 44.7539C26.8924 44.7691 27.0784 44.7843 27.2954 44.7083C27.5124 44.6322 27.7449 44.4193 27.8534 44.1151C27.9929 43.8109 28.1479 43.461 28.3184 43.0808C28.4114 42.883 28.4889 42.6853 28.5974 42.4876C28.7059 42.2898 28.7524 42.0465 28.6904 41.8183C28.6284 41.5902 28.4734 41.3772 28.2409 41.2555C28.0084 41.1491 27.7449 41.0426 27.4969 40.9209C26.4739 40.4646 25.3424 39.9627 24.1644 39.4455C23.8854 39.3239 23.5289 39.3543 23.2809 39.5216C23.1569 39.5976 23.0639 39.7193 22.9864 39.8562C22.9243 39.9931 22.8623 40.13 22.8003 40.2669C22.6763 40.5407 22.5523 40.8145 22.4283 41.073C22.3663 41.2099 22.3043 41.3316 22.2423 41.4685C22.1803 41.5902 22.1183 41.7271 22.0718 41.8487C21.9943 42.1073 22.0563 42.3811 22.1958 42.594C22.2733 42.7005 22.3663 42.7766 22.4748 42.8526C22.5833 42.9135 22.7073 42.9591 22.8158 43.0047C23.2654 43.2025 23.6994 43.4002 24.0869 43.5675C24.8619 43.9173 25.4819 44.1911 25.9159 44.3888C26.1329 44.4801 26.2879 44.5562 26.4119 44.617C26.4584 44.6474 26.5049 44.6626 26.5359 44.6778C26.5669 44.7083 26.5824 44.7083 26.5824 44.7083C26.5824 44.7083 26.5669 44.7083 26.5359 44.693C26.5049 44.6778 26.4584 44.6626 26.4119 44.6322C26.2879 44.5866 26.1174 44.5105 25.9159 44.4193C25.4819 44.2215 24.8464 43.9478 24.0714 43.6131C23.6839 43.4458 23.2499 43.2633 22.8003 43.0504C22.6918 43.0047 22.5678 42.9591 22.4438 42.883C22.3353 42.8222 22.2268 42.7309 22.1493 42.6093C21.9943 42.3811 21.9323 42.0921 22.0098 41.8031C22.0563 41.6662 22.1183 41.5445 22.1803 41.4077C22.2423 41.286 22.3043 41.1491 22.3663 41.0122C22.4903 40.7536 22.6143 40.4798 22.7383 40.206C22.8003 40.0692 22.8623 39.9323 22.9244 39.7954C23.0019 39.6585 23.1104 39.5216 23.2344 39.4303C23.4979 39.2326 23.8854 39.2022 24.1954 39.3391C25.3734 39.8714 26.5049 40.3581 27.5279 40.8145C27.7914 40.9361 28.0394 41.0426 28.2719 41.1491C28.5199 41.2708 28.6904 41.4989 28.7524 41.7575C28.8144 42.0008 28.7679 42.2594 28.6594 42.4724C28.5664 42.6853 28.4734 42.883 28.3804 43.0656C28.2099 43.4458 28.0394 43.7804 27.8999 44.0846C27.8689 44.1607 27.8379 44.2367 27.7914 44.2976C27.7449 44.3584 27.6984 44.4193 27.6519 44.4801C27.5434 44.5866 27.4349 44.6474 27.3109 44.693C27.0784 44.7691 26.8924 44.7539 26.7684 44.7235C26.6444 44.7539 26.5824 44.7083 26.5824 44.7083Z" fill="#263238"/>
<path d="M25.5594 39.1261C25.6059 39.1413 29.295 37.8484 29.295 37.8484L30.628 41.3468L25.5594 39.1261Z" fill="#FAFAFA"/>
<path d="M29.5895 40.9057C29.574 40.9209 29.3105 40.4342 29.0005 39.8258C28.706 39.2174 28.4735 38.7154 28.489 38.7154C28.5045 38.7002 28.768 39.187 29.078 39.7954C29.388 40.3886 29.605 40.8905 29.5895 40.9057Z" fill="#263238"/>
<path d="M28.737 40.5559C28.7215 40.5711 28.5199 40.206 28.2874 39.7497C28.0704 39.2934 27.8999 38.9284 27.9154 38.9132C27.9309 38.898 28.1324 39.263 28.3649 39.7193C28.5974 40.1604 28.7525 40.5407 28.737 40.5559Z" fill="#263238"/>
<path d="M27.8534 40.1452C27.8379 40.1604 27.6984 39.9322 27.5589 39.6584C27.4194 39.3694 27.3264 39.1413 27.3419 39.1261C27.3574 39.1109 27.4969 39.339 27.6364 39.6128C27.7759 39.9018 27.8689 40.13 27.8534 40.1452Z" fill="#263238"/>
<path d="M27.0009 39.7801C26.9854 39.7954 26.9079 39.6889 26.8459 39.5672C26.7839 39.4455 26.7529 39.3391 26.7684 39.3238C26.7839 39.3086 26.8614 39.4151 26.9234 39.5368C26.9854 39.6585 27.0164 39.7801 27.0009 39.7801Z" fill="#263238"/>
<g opacity="0.3">
<path d="M19.6073 42.3963C22.1338 44.5257 25.3114 45.9099 28.6284 46.3205L19.6073 42.3963Z" fill="black"/>
</g>
<path d="M26.6444 41.7727L25.3579 41.2099C25.2029 41.1491 25.1409 40.9666 25.2029 40.8297L25.2494 40.708C25.3114 40.5559 25.4974 40.4951 25.6369 40.5559L26.9234 41.1187C27.0784 41.1795 27.1404 41.362 27.0784 41.4989L27.0319 41.6206C26.9544 41.7727 26.7839 41.8336 26.6444 41.7727Z" fill="#E0E0E0"/>
<path d="M30.2715 33.3767C30.2715 33.3767 30.473 33.8178 30.504 34.0612C30.535 34.3045 30.349 35.278 30.349 35.278C30.349 35.278 30.1165 35.354 30.039 34.7608C29.9615 34.1676 29.9615 33.9091 29.9615 33.9091L30.2715 33.3767Z" fill="#E49384"/>
<path d="M29.5895 31.0191L29.6825 31.8709L30.287 33.4071L29.977 35.1715C29.946 35.354 29.853 35.5365 29.698 35.643C29.636 35.6886 29.5895 35.719 29.543 35.719C29.4035 35.719 29.14 35.3996 29.14 35.3996C29.14 35.3996 28.7524 35.5974 28.5664 35.3084C28.5664 35.3084 28.1014 35.3388 27.9619 35.0498C27.9619 35.0498 27.6364 35.1411 27.5124 34.9433C27.3884 34.7456 27.2024 33.7874 27.2024 33.7874L27.6054 31.0343H29.5895V31.0191Z" fill="#E49384"/>
<path d="M27.8534 34.5479C27.8688 34.5479 27.9149 34.6391 27.9303 34.776C27.9611 34.9129 27.9611 35.0194 27.9303 35.0194C27.9149 35.0194 27.8688 34.9281 27.8534 34.7912C27.838 34.6695 27.838 34.5631 27.8534 34.5479Z" fill="#A86B62"/>
<path d="M28.4268 34.6087C28.4422 34.6087 28.4576 34.7608 28.4884 34.9585C28.5192 35.1411 28.55 35.3084 28.5192 35.3084C28.5038 35.3084 28.4268 35.1715 28.4114 34.9737C28.396 34.776 28.4114 34.6087 28.4268 34.6087Z" fill="#A86B62"/>
<path d="M29.0776 34.7608C29.093 34.7608 29.093 34.8977 29.1084 35.065C29.1084 35.2323 29.1238 35.3692 29.1084 35.3692C29.093 35.3692 29.0314 35.2323 29.0314 35.065C29.016 34.8977 29.0468 34.7608 29.0776 34.7608Z" fill="#A86B62"/>
<path d="M30.1785 33.9547C30.194 33.9547 30.163 34.2589 30.101 34.6239C30.039 34.9889 29.977 35.2931 29.946 35.2931C29.9305 35.2931 29.9615 34.9889 30.0235 34.6239C30.0855 34.2436 30.1475 33.9547 30.1785 33.9547Z" fill="#A86B62"/>
<path d="M27.8844 34.198C27.8844 34.2133 27.8689 34.2285 27.8224 34.2437C27.7759 34.2589 27.7139 34.2741 27.6519 34.2437C27.5899 34.2133 27.5434 34.1676 27.5124 34.122C27.4969 34.0764 27.4969 34.0459 27.4969 34.0459C27.5124 34.0307 27.5744 34.122 27.6674 34.1524C27.7759 34.2133 27.8689 34.1676 27.8844 34.198Z" fill="#A86B62"/>
<path d="M28.52 34.3957C28.52 34.4109 28.5044 34.4262 28.4579 34.4414C28.4114 34.4566 28.3339 34.4566 28.2719 34.4262C28.1944 34.3957 28.1479 34.3501 28.1169 34.3197C28.0859 34.2741 28.0859 34.2436 28.1014 34.2436C28.1169 34.2284 28.1789 34.3197 28.3029 34.3653C28.4114 34.3957 28.52 34.3805 28.52 34.3957Z" fill="#A86B62"/>
<path d="M29.822 34.4566C29.8375 34.4414 29.8685 34.5175 29.8065 34.5783C29.7445 34.6391 29.636 34.6696 29.512 34.6696C29.388 34.6696 29.295 34.6087 29.233 34.5631C29.171 34.5175 29.1554 34.4718 29.171 34.4566C29.1865 34.4414 29.3105 34.5783 29.5275 34.5783C29.6205 34.5783 29.729 34.5631 29.7755 34.5327C29.8065 34.5022 29.8065 34.4566 29.822 34.4566Z" fill="#A86B62"/>
</svg>
